<?xml version="1.0" encoding="UTF-8" standalone="no"?>
<!-- Created with Inkscape (http://www.inkscape.org/) -->

<svg
   width="100.00012mm"
   height="24.000084mm"
   viewBox="0 0 100.00012 24.000084"
   version="1.1"
   id="svg1275"
   xmlns="http://www.w3.org/2000/svg"
   xmlns:svg="http://www.w3.org/2000/svg">
  <defs
     id="defs1272" />
  <g
     id="layer1"
     transform="translate(-52.351006,-64.740214)">
    <g
       id="g1138"
       transform="matrix(0.26458333,0,0,0.26458333,-47.203383,1.5647425)">
      <path
         id="path1217-7"
         style="fill:#041e42;fill-opacity:1;stroke:none;stroke-width:0.5;stroke-miterlimit:4;stroke-dasharray:none;stroke-opacity:1"
         d="m 421.62305,238.77344 a 45.35449,45.35449 0 0 0 0,90.70898 h 301.34961 a 30.23622,30.23622 0 0 0 29.96679,-26.20508 143.62205,143.62205 0 0 0 0,-38.29882 30.23622,30.23622 0 0 0 -29.96679,-26.20508 z m 114.38867,33.1914 a 12.472441,12.472441 0 0 1 15.24805,12.16407 12.472441,12.472441 0 1 1 -24.94336,0 12.472441,12.472441 0 0 1 9.69531,-12.16407 z" />
      <g
         id="g26962-5-35"
         transform="matrix(1.4353237,0,0,1.4353237,-159.61501,110.94033)">
        <g
           id="g19612-3-7-9-9-5-6"
           style="stroke:#ffffff;stroke-width:2;stroke-miterlimit:4;stroke-dasharray:none;stroke-opacity:1"
           transform="matrix(0.4458924,0,0,0.4458924,235.64998,2.5913973)">
          <path
             style="fill:none;fill-rule:evenodd;stroke:#ffffff;stroke-width:2;stroke-linecap:butt;stroke-linejoin:miter;stroke-miterlimit:4;stroke-dasharray:none;stroke-opacity:1"
             id="path18486-6-8-2-5-4-2"
             d="m 452.92116,264.79517 a 25.971209,25.958143 0 0 1 -25.87974,25.95798 25.971209,25.958143 0 0 1 -26.06203,-25.77514 25.971209,25.958143 0 0 1 25.69616,-26.13954 25.971209,25.958143 0 0 1 26.24303,25.59101" />
          <path
             style="fill:none;fill-rule:evenodd;stroke:#ffffff;stroke-width:2;stroke-linecap:butt;stroke-linejoin:miter;stroke-miterlimit:4;stroke-dasharray:none;stroke-opacity:1"
             d="m 427.43622,217.55093 v 94.4882"
             id="path19505-1-4-6-0-7-9" />
          <path
             style="fill:none;fill-rule:evenodd;stroke:#ffffff;stroke-width:2;stroke-linecap:butt;stroke-linejoin:miter;stroke-miterlimit:4;stroke-dasharray:none;stroke-opacity:1"
             d="m 474.17954,264.79503 h -94.4882"
             id="path19505-3-0-5-6-4-6-1" />
        </g>
      </g>
      <g
         id="g4376-0-6-5-4-9-2"
         transform="matrix(0.24157318,0,0,0.24157318,726.58188,326.28066)"
         style="fill:#ffffff;fill-opacity:1;stroke:none;stroke-opacity:1">
        <path
           d="m -275.42318,-21.748621 2.11413,-26.185798 h 26.18608 l -0.22022,2.727615 h -22.91266 l -0.70471,8.728607 h 21.82152 l -0.22023,2.727827 h -21.82152 l -0.74875,9.274113 h 22.91266 l -0.22022,2.727636 z"
           style="font-style:normal;font-variant:normal;font-weight:normal;font-stretch:normal;font-size:13.6606px;line-height:1.25;font-family:Michroma;-inkscape-font-specification:'Michroma, Normal';font-variant-ligatures:normal;font-variant-caps:normal;font-variant-numeric:normal;font-feature-settings:normal;text-align:start;letter-spacing:0px;word-spacing:0px;writing-mode:lr-tb;text-anchor:start;fill:#ffffff;fill-opacity:1;stroke:none;stroke-width:1.09965;stroke-opacity:1"
           id="path4632-6-0-6-5-2-7" />
        <path
           d="m -217.90251,-47.934419 h 4.9097 l -19.58313,12.820019 18.01457,13.365779 h -4.9097 l -16.48841,-12.001749 h -4.36456 l -0.96897,12.001749 h -3.27278 l 2.11412,-26.185798 h 3.27279 l -0.92493,11.456222 h 4.36456 z"
           style="font-style:normal;font-variant:normal;font-weight:normal;font-stretch:normal;font-size:13.6606px;line-height:1.25;font-family:Michroma;-inkscape-font-specification:'Michroma, Normal';font-variant-ligatures:normal;font-variant-caps:normal;font-variant-numeric:normal;font-feature-settings:normal;text-align:start;letter-spacing:0px;word-spacing:0px;writing-mode:lr-tb;text-anchor:start;fill:#ffffff;fill-opacity:1;stroke:none;stroke-width:1.09965;stroke-opacity:1"
           id="path4634-2-6-9-2-2-0" />
        <path
           id="path4636-6-2-3-5-8-9"
           d="m -216.28769,-47.934207 -3.41869,2.727615 h 19.15586 3.27321 19.48703 l 0.22021,-2.727615 z"
           style="font-style:normal;font-variant:normal;font-weight:normal;font-stretch:normal;font-size:13.6606px;line-height:1.25;font-family:Michroma;-inkscape-font-specification:'Michroma, Normal';font-variant-ligatures:normal;font-variant-caps:normal;font-variant-numeric:normal;font-feature-settings:normal;text-align:start;letter-spacing:0px;word-spacing:0px;writing-mode:lr-tb;text-anchor:start;fill:#ffffff;fill-opacity:1;stroke:none;stroke-width:1.09965;stroke-opacity:1" />
        <path
           id="path4669-1-6-7-4-9-3"
           d="m -200.46353,-46.283996 -1.98088,24.535333 h 3.27321 l 1.98087,-24.535333 z"
           style="font-style:normal;font-variant:normal;font-weight:normal;font-stretch:normal;font-size:13.6606px;line-height:1.25;font-family:Michroma;-inkscape-font-specification:'Michroma, Normal';font-variant-ligatures:normal;font-variant-caps:normal;font-variant-numeric:normal;font-feature-settings:normal;text-align:start;letter-spacing:0px;word-spacing:0px;writing-mode:lr-tb;text-anchor:start;fill:#ffffff;fill-opacity:1;stroke:none;stroke-width:1.09965;stroke-opacity:1" />
        <path
           d="m -150.08946,-21.748621 h -3.2732 l 0.39639,-4.909724 q 0.0964,-1.193397 0.1121,-2.045823 0.0384,-0.869451 -0.17024,-1.483228 -0.18799,-0.613776 -0.68714,-0.988903 -0.4981,-0.374894 -1.45343,-0.579429 -0.95503,-0.205491 -2.45002,-0.272764 -1.47634,-0.08534 -3.65841,-0.08534 h -14.71255 l -0.83684,10.365167 h -3.2732 l 2.11414,-26.186032 h 18.53133 q 3.00042,0 5.02852,0.221582 2.04618,0.205491 3.34158,0.630844 1.31253,0.426309 1.97722,1.056898 0.6823,0.630845 0.93743,1.483249 0.2721,0.852427 0.23813,1.909558 -0.0153,1.056941 -0.1185,2.335442 -0.13213,1.636561 -0.47037,2.88116 -0.32137,1.227532 -0.93671,2.097005 -0.61556,0.869473 -1.5617,1.397953 -0.9452,0.511392 -2.32521,0.715907 1.34708,0.203368 2.12425,0.71614 0.77707,0.511392 1.15404,1.329683 0.3774,0.818291 0.42284,1.943438 0.0641,1.12519 -0.0515,2.557236 z m -25.67436,-13.093016 h 15.25834 q 2.18206,0 3.67055,-0.06772 1.5071,-0.08534 2.49564,-0.289598 0.98844,-0.205703 1.54679,-0.579641 0.55866,-0.375148 0.84704,-0.988925 0.30493,-0.613755 0.40835,-1.466182 0.12327,-0.869451 0.21962,-2.062869 0.0895,-1.108101 0.10108,-1.909345 0.0328,-0.801202 -0.18125,-1.34673 -0.1935,-0.545548 -0.697,-0.869494 -0.502,-0.323945 -1.46008,-0.494324 -0.95687,-0.188084 -2.45298,-0.238862 -1.47895,-0.05031 -3.66102,-0.05031 h -15.25833 z"
           style="font-style:normal;font-variant:normal;font-weight:normal;font-stretch:normal;font-size:13.6606px;line-height:1.25;font-family:Michroma;-inkscape-font-specification:'Michroma, Normal';font-variant-ligatures:normal;font-variant-caps:normal;font-variant-numeric:normal;font-feature-settings:normal;text-align:start;letter-spacing:0px;word-spacing:0px;writing-mode:lr-tb;text-anchor:start;fill:#ffffff;fill-opacity:1;stroke:none;stroke-width:1.09965;stroke-opacity:1"
           id="path4689-8-1-4-7-7-6" />
        <path
           d="m -122.57142,-48.479968 q 3.00085,0 5.01614,0.374915 2.03386,0.358081 3.30326,1.108122 1.27013,0.733187 1.89575,1.858377 0.62498,1.125147 0.82643,2.642298 0.21843,1.517363 0.11544,3.426709 -0.0841,1.909557 -0.27129,4.22791 -0.1872,2.318608 -0.41142,4.228145 -0.2051,1.909324 -0.66873,3.426475 -0.44645,1.517363 -1.25311,2.642511 -0.8073,1.125189 -2.19718,1.875231 -1.38915,0.733186 -3.48081,1.091055 -2.07585,0.375127 -5.0767,0.375127 h -9.85379 q -3.00021,0 -5.03269,-0.375127 -2.0171,-0.357869 -3.28765,-1.091055 -1.26919,-0.750042 -1.91115,-1.875231 -0.62541,-1.125148 -0.84383,-2.642511 -0.20146,-1.517151 -0.0983,-3.426475 0.10322,-1.909537 0.29042,-4.228145 0.18717,-2.318353 0.39229,-4.22791 0.20722,-1.909346 0.65155,-3.426709 0.46341,-1.517151 1.2705,-2.642298 0.82365,-1.12519 2.21259,-1.858377 1.3903,-0.750041 3.4652,-1.108122 2.09303,-0.374915 5.09324,-0.374915 z m -1.982,24.549259 q 2.1653,0 3.65807,-0.118242 1.51116,-0.135649 2.51471,-0.528459 1.00329,-0.392174 1.59127,-1.125169 0.58757,-0.733186 0.92388,-1.943438 0.33549,-1.210486 0.51229,-2.966499 0.19622,-1.773059 0.39441,-4.227911 0.1982,-2.454851 0.2869,-4.210864 0.11131,-1.77308 -0.0319,-2.983524 -0.13983,-1.210273 -0.61007,-1.94348 -0.46962,-0.732974 -1.40958,-1.125169 -0.92321,-0.391961 -2.41378,-0.511392 -1.47228,-0.135649 -3.65456,-0.135649 h -9.85379 q -2.18228,0 -3.69323,0.135649 -1.49256,0.118242 -2.49635,0.511392 -1.00329,0.392195 -1.59084,1.125169 -0.58757,0.733207 -0.92389,1.94348 -0.33549,1.210444 -0.51366,2.983524 -0.17362,1.756013 -0.37181,4.210864 -0.1982,2.454852 -0.3095,4.227911 -0.0887,1.756013 0.0503,2.966499 0.13984,1.210252 0.5931,1.943438 0.46919,0.732995 1.40915,1.125169 0.94041,0.391982 2.4124,0.528459 1.49045,0.118242 3.67273,0.118242 z"
           style="font-style:normal;font-variant:normal;font-weight:normal;font-stretch:normal;font-size:13.6606px;line-height:1.25;font-family:Michroma;-inkscape-font-specification:'Michroma, Normal';font-variant-ligatures:normal;font-variant-caps:normal;font-variant-numeric:normal;font-feature-settings:normal;text-align:start;letter-spacing:0px;word-spacing:0px;writing-mode:lr-tb;text-anchor:start;fill:#ffffff;fill-opacity:1;stroke:none;stroke-width:1.09965;stroke-opacity:1"
           id="path4691-7-8-5-4-3-06" />
        <path
           d="m -106.13288,-21.748621 h -3.273 l 2.11413,-26.185798 h 5.74525 l 22.15372,22.912656 1.849867,-22.912656 h 3.273206 l -2.114126,26.185798 h -4.364134 l -23.491003,-23.458183 z"
           style="font-style:normal;font-variant:normal;font-weight:normal;font-stretch:normal;font-size:13.6606px;line-height:1.25;font-family:Michroma;-inkscape-font-specification:'Michroma, Normal';font-variant-ligatures:normal;font-variant-caps:normal;font-variant-numeric:normal;font-feature-settings:normal;text-align:start;letter-spacing:0px;word-spacing:0px;writing-mode:lr-tb;text-anchor:start;fill:#ffffff;fill-opacity:1;stroke:none;stroke-width:1.09965;stroke-opacity:1"
           id="path4693-9-7-2-4-6-2" />
        <path
           d="m -68.304103,-47.934419 h 3.273206 l -2.114127,26.185798 h -3.273206 z"
           style="font-style:normal;font-variant:normal;font-weight:normal;font-stretch:normal;font-size:13.6606px;line-height:1.25;font-family:Michroma;-inkscape-font-specification:'Michroma, Normal';font-variant-ligatures:normal;font-variant-caps:normal;font-variant-numeric:normal;font-feature-settings:normal;text-align:start;letter-spacing:0px;word-spacing:0px;writing-mode:lr-tb;text-anchor:start;fill:#ffffff;fill-opacity:1;stroke:none;stroke-width:1.09965;stroke-opacity:1"
           id="path4698-2-9-5-3-1-6" />
        <path
           d="m -29.530688,-39.751361 c 0.110112,-1.363861 0.04657,-2.443643 -0.181304,-3.23922 -0.231267,-0.795597 -0.671527,-1.397932 -1.320358,-1.806982 -0.648821,-0.409177 -1.525674,-0.670626 -2.630557,-0.784368 -1.092992,-0.113784 -2.458071,-0.170464 -4.094568,-0.170464 h -10.416986 c -1.45457,0 -2.685876,0.04543 -3.693229,0.13565 -0.995177,0.07876 -1.8273,0.249285 -2.495946,0.511625 -0.669201,0.261322 -1.199621,0.636364 -1.591264,1.125169 -0.391842,0.488635 -0.699736,1.136483 -0.923889,1.943459 -0.222231,0.806849 -0.395074,1.801293 -0.51407,2.983333 -0.117864,1.17064 -0.239679,2.574282 -0.371808,4.210843 -0.132142,1.636731 -0.245924,3.046041 -0.309502,4.227932 -0.06055,1.170661 -0.04273,2.159501 0.05069,2.966456 0.09406,0.806976 0.290979,1.454824 0.593092,1.943481 0.312728,0.488635 0.782587,0.86372 1.409583,1.125147 0.626356,0.26147 1.430489,0.437624 2.411972,0.528481 0.993711,0.07876 2.218162,0.118242 3.672731,0.118242 h 10.416986 c 1.273067,0 2.372697,-0.03418 3.298484,-0.102745 0.926424,-0.06857 1.720678,-0.193391 2.383012,-0.374915 0.662579,-0.181927 1.20562,-0.431955 1.628928,-0.750275 0.423722,-0.318192 0.762799,-0.71597 1.017237,-1.193397 0.26681,-0.488677 0.467084,-1.068255 0.600609,-1.738733 0.135732,-0.682025 0.240299,-1.477623 0.313705,-2.386835 h 3.273419 c -0.08809,1.091054 -0.235851,2.079873 -0.445416,2.966477 -0.208636,0.875098 -0.515223,1.659254 -0.922946,2.352488 -0.39578,0.682026 -0.903938,1.273024 -1.524058,1.77308 -0.620117,0.500014 -1.386629,0.914902 -2.299532,1.244579 -0.911976,0.318213 -1.987957,0.551153 -3.227308,0.69886 -1.240687,0.159001 -2.678973,0.238649 -4.31547,0.238649 h -10.416986 c -2.000139,0 -3.677914,-0.125035 -5.033127,-0.374914 -1.34444,-0.238714 -2.43997,-0.602398 -3.287228,-1.091055 -0.846117,-0.500162 -1.483443,-1.125338 -1.911562,-1.875422 -0.416654,-0.750106 -0.69793,-1.630957 -0.843614,-2.642553 -0.133812,-1.011406 -0.167057,-2.153579 -0.09847,-3.426476 0.06881,-1.273024 0.163487,-2.682314 0.288272,-4.227911 0.124795,-1.545724 0.261933,-2.955098 0.394433,-4.228144 0.136732,-1.272876 0.354192,-2.415027 0.651744,-3.426475 0.309027,-1.011576 0.732532,-1.892405 1.270309,-2.642532 0.549237,-0.750105 1.287049,-1.36955 2.21301,-1.858355 0.927079,-0.500013 2.081795,-0.869409 3.464779,-1.108101 1.395568,-0.249964 3.093526,-0.374915 5.093665,-0.374915 h 10.416986 c 1.636497,0 3.061925,0.07961 4.276937,0.238629 1.215514,0.147537 2.253866,0.380667 3.114462,0.69886 0.861505,0.306941 1.562862,0.699072 2.104076,1.17635 0.541202,0.477427 0.956225,1.040022 1.244646,1.687742 0.300296,0.647891 0.485442,1.381056 0.555446,2.199411 0.07193,0.818206 0.06645,1.727375 -0.0143,2.727594 z"
           style="font-style:normal;font-variant:normal;font-weight:normal;font-stretch:normal;font-size:13.6606px;line-height:1.25;font-family:Michroma;-inkscape-font-specification:'Michroma, Normal';font-variant-ligatures:normal;font-variant-caps:normal;font-variant-numeric:normal;font-feature-settings:normal;text-align:start;letter-spacing:0px;word-spacing:0px;writing-mode:lr-tb;text-anchor:start;fill:#ffffff;fill-opacity:1;stroke:none;stroke-width:1.09965;stroke-opacity:1"
           id="path4733-0-2-4-0-2-1" />
        <path
           id="path4735-2-0-7-7-9-87"
           style="font-style:normal;font-variant:normal;font-weight:normal;font-stretch:normal;font-size:13.6606px;line-height:1.25;font-family:Michroma;-inkscape-font-specification:'Michroma, Normal';font-variant-ligatures:normal;font-variant-caps:normal;font-variant-numeric:normal;font-feature-settings:normal;text-align:start;letter-spacing:0px;word-spacing:0px;writing-mode:lr-tb;text-anchor:start;opacity:1;fill:#ffffff;fill-opacity:1;stroke:none;stroke-width:1.09965;stroke-opacity:1"
           d="m -5.3706196,-36.478197 c 1.79571,0 3.3300437,0.0743 4.60225837,0.221582 1.27230354,0.148811 2.33416553,0.369459 3.18555493,0.664958 0.8635574,0.284142 1.539218,0.642223 2.0274269,1.073987 0.4877637,0.432019 0.8514059,0.926343 1.0906937,1.483228 0.2397785,0.545548 0.3719399,1.159325 0.3965032,1.841096 0.036218,0.682026 0.021161,1.420689 -0.043085,2.216457 -0.064228,0.795534 -0.1990825,1.545576 -0.403942,2.250316 -0.1939499,0.693192 -0.4945604,1.329704 -0.9043637,1.909345 -0.4104401,0.579642 -0.946598,1.096744 -1.6082597,1.551287 -0.6618895,0.454733 -1.4887156,0.841005 -2.48051619,1.159282 -0.99179886,0.318256 -2.17586671,0.556885 -3.55286101,0.71614 -1.3662235,0.170464 -2.9584413,0.255696 -4.7770779,0.255696 h -4.363921 c -1.636922,0 -3.063865,-0.06347 -4.281018,-0.188083 -1.217348,-0.124823 -2.259151,-0.312589 -3.125464,-0.562595 -0.865819,-0.261386 -1.572894,-0.585331 -2.1208,-0.971836 -0.54743,-0.397651 -0.97622,-0.858094 -1.286403,-1.380886 -0.298015,-0.534149 -0.488202,-1.136526 -0.570343,-1.807173 -0.08294,-0.681793 -0.09032,-1.431834 -0.02425,-2.250125 h 3.273419 c -0.08258,1.022826 0.0013,1.824028 0.249187,2.40367 0.248701,0.579641 0.701845,1.017137 1.359844,1.312636 0.65934,0.284142 1.536876,0.466133 2.632645,0.545527 1.108386,0.06772 2.480946,0.102746 4.117443,0.102746 h 4.3641337 c 1.9092819,0 3.5024641,-0.09192 4.7784542,-0.272743 1.2762573,-0.181502 2.30569293,-0.47161 3.08802781,-0.869493 0.78210369,-0.397651 1.35243769,-0.914732 1.71057719,-1.551244 0.3592704,-0.647891 0.5758487,-1.432046 0.6501801,-2.352722 0.074311,-0.920421 0.030119,-1.687742 -0.1379185,-2.301519 -0.1542407,-0.613755 -0.5304407,-1.102412 -1.12646,-1.466181 -0.58415027,-0.363537 -1.43302155,-0.619233 -2.5463998,-0.76711 -1.1124288,-0.159637 -2.5778161,-0.238628 -4.3960281,-0.238628 h -4.5006326 c -2.000351,0 -3.710881,-0.0743 -5.130843,-0.221603 -1.408802,-0.148811 -2.584943,-0.358081 -3.529027,-0.630823 -0.943164,-0.284142 -1.688099,-0.630844 -2.234612,-1.039852 -0.545575,-0.420641 -0.950501,-0.89794 -1.214126,-1.432089 -0.252589,-0.534127 -0.397838,-1.125147 -0.436388,-1.773038 -0.03593,-0.659269 -0.02529,-1.369507 0.03618,-2.130927 0.06424,-0.795747 0.191812,-1.53441 0.384859,-2.216414 0.203645,-0.681814 0.519828,-1.295591 0.950014,-1.841097 0.431319,-0.556905 0.999815,-1.05123 1.705087,-1.483249 0.705254,-0.431785 1.592003,-0.789866 2.660651,-1.073966 1.080822,-0.295541 2.366045,-0.517102 3.855905,-0.664979 1.48911,-0.146476 3.2339917,-0.221582 5.2341311,-0.221582 h 3.2734185 c 1.636497,0 3.06344,0.06347 4.28101756,0.188084 1.21823936,0.113784 2.26007094,0.301188 3.12546394,0.562594 0.8665256,0.250007 1.5736369,0.568242 2.1221796,0.954747 0.5607124,0.375127 0.9897656,0.82967 1.2877811,1.363819 0.3099728,0.52277 0.5063466,1.1195 0.5882772,1.790127 0.083858,0.670414 0.091674,1.414999 0.025609,2.23329 H 3.6181444 c 0.082596,-1.023038 8.071e-4,-1.824262 -0.2487436,-2.403903 -0.2489122,-0.579663 -0.7029433,-1.011427 -1.361859,-1.295569 -0.6577847,-0.29552 -1.54107151,-0.477278 -2.64962754,-0.545527 -1.10749536,-0.07876 -2.47948296,-0.118242 -4.11597996,-0.118242 h -3.2732062 c -2.1820671,0 -3.9839231,0.07876 -5.4061831,0.238628 -1.421179,0.146476 -2.555792,0.403594 -3.403514,0.767343 -0.847917,0.363536 -1.455669,0.852384 -1.823206,1.465948 -0.367768,0.613776 -0.588912,1.380864 -0.663242,2.301519 -0.04588,0.568284 -0.0485,1.073987 -0.0015,1.517363 0.04701,0.443164 0.171801,0.835359 0.382453,1.17635 0.223457,0.329635 0.547424,0.608088 0.972324,0.835359 0.424688,0.227271 0.995033,0.414718 1.710593,0.562573 0.715459,0.146476 1.593137,0.255718 2.633127,0.323946 1.052581,0.05689 2.306368,0.08534 3.7611503,0.08534 z" />
        <path
           id="path4737-3-2-4-8-3-9"
           d="m -329.95134,-34.842167 -1.77965,22.042971 h 29.66074 l 0.21473,-2.659748 h -27.00506 l 1.56491,-19.383223 z"
           style="color:#000000;font-style:normal;font-variant:normal;font-weight:normal;font-stretch:normal;font-size:medium;line-height:normal;font-family:sans-serif;font-variant-ligatures:normal;font-variant-position:normal;font-variant-caps:normal;font-variant-numeric:normal;font-variant-alternates:normal;font-feature-settings:normal;text-indent:0;text-align:start;text-decoration:none;text-decoration-line:none;text-decoration-style:solid;text-decoration-color:#000000;letter-spacing:normal;word-spacing:normal;text-transform:none;writing-mode:lr-tb;direction:ltr;text-orientation:mixed;dominant-baseline:auto;baseline-shift:baseline;text-anchor:start;white-space:normal;shape-padding:0;clip-rule:nonzero;display:inline;overflow:visible;visibility:visible;opacity:1;isolation:auto;mix-blend-mode:normal;color-interpolation:sRGB;color-interpolation-filters:linearRGB;solid-color:#000000;solid-opacity:1;vector-effect:none;fill:#ffffff;fill-opacity:1;fill-rule:nonzero;stroke:none;stroke-width:5.49826;stroke-linecap:butt;stroke-linejoin:miter;stroke-miterlimit:4;stroke-dasharray:none;stroke-dashoffset:0;stroke-opacity:1;marker:none;color-rendering:auto;image-rendering:auto;shape-rendering:auto;text-rendering:auto;enable-background:accumulate" />
        <path
           id="path4739-7-3-4-6-1-2"
           d="m -290.05525,-55.155109 -1.22954,2.447931 c 2.24047,0.977738 4.21409,2.39486 5.82422,4.146543 1.61032,1.752 2.85495,3.839558 3.64568,6.159015 0.7903,2.319542 1.12492,4.869284 0.90772,7.559453 -0.43441,5.380697 -2.98246,10.218861 -6.76886,13.722438 l 1.72361,1.879095 c 4.30511,-3.983487 7.21298,-9.507795 7.70496,-15.601533 0.24597,-3.046615 -0.13684,-5.951275 -1.03671,-8.591217 -0.89947,-2.639623 -2.31472,-5.014444 -4.14577,-7.006325 -1.83062,-1.991861 -4.07582,-3.602629 -6.62531,-4.7154 z"
           style="color:#000000;font-style:normal;font-variant:normal;font-weight:normal;font-stretch:normal;font-size:medium;line-height:normal;font-family:sans-serif;font-variant-ligatures:normal;font-variant-position:normal;font-variant-caps:normal;font-variant-numeric:normal;font-variant-alternates:normal;font-feature-settings:normal;text-indent:0;text-align:start;text-decoration:none;text-decoration-line:none;text-decoration-style:solid;text-decoration-color:#000000;letter-spacing:normal;word-spacing:normal;text-transform:none;writing-mode:lr-tb;direction:ltr;text-orientation:mixed;dominant-baseline:auto;baseline-shift:baseline;text-anchor:start;white-space:normal;shape-padding:0;clip-rule:nonzero;display:inline;overflow:visible;visibility:visible;opacity:1;isolation:auto;mix-blend-mode:normal;color-interpolation:sRGB;color-interpolation-filters:linearRGB;solid-color:#000000;solid-opacity:1;vector-effect:none;fill:#ffffff;fill-opacity:1;fill-rule:nonzero;stroke:none;stroke-width:5.49826;stroke-linecap:butt;stroke-linejoin:miter;stroke-miterlimit:4;stroke-dasharray:none;stroke-dashoffset:0;stroke-opacity:1;marker:none;color-rendering:auto;image-rendering:auto;shape-rendering:auto;text-rendering:auto;enable-background:accumulate" />
        <path
           id="path4743-5-7-3-8-9-0"
           d="m -326.84205,-56.88119 -0.21442,2.655842 h 28.33078 l 0.21442,-2.655842 z"
           style="color:#000000;font-style:normal;font-variant:normal;font-weight:normal;font-stretch:normal;font-size:medium;line-height:normal;font-family:sans-serif;font-variant-ligatures:normal;font-variant-position:normal;font-variant-caps:normal;font-variant-numeric:normal;font-variant-alternates:normal;font-feature-settings:normal;text-indent:0;text-align:start;text-decoration:none;text-decoration-line:none;text-decoration-style:solid;text-decoration-color:#000000;letter-spacing:normal;word-spacing:normal;text-transform:none;writing-mode:lr-tb;direction:ltr;text-orientation:mixed;dominant-baseline:auto;baseline-shift:baseline;text-anchor:start;white-space:normal;shape-padding:0;clip-rule:nonzero;display:inline;overflow:visible;visibility:visible;opacity:1;isolation:auto;mix-blend-mode:normal;color-interpolation:sRGB;color-interpolation-filters:linearRGB;solid-color:#000000;solid-opacity:1;vector-effect:none;fill:#ffffff;fill-opacity:1;fill-rule:nonzero;stroke:none;stroke-width:5.49826;stroke-linecap:butt;stroke-linejoin:miter;stroke-miterlimit:4;stroke-dasharray:none;stroke-dashoffset:0;stroke-opacity:1;marker:none;color-rendering:auto;image-rendering:auto;shape-rendering:auto;text-rendering:auto;enable-background:accumulate" />
        <path
           id="path4745-9-5-0-8-4-2"
           d="m -286.21511,-34.842167 c -0.31565,3.909654 -2.17031,7.416415 -4.91949,9.960341 -2.74917,2.543735 -6.38297,4.115167 -10.2924,4.115167 h -15.32244 l -0.21442,2.655842 h 15.32244 c 4.62291,0 8.96636,-1.868374 12.23467,-4.891935 3.26748,-3.023794 5.47431,-7.216762 5.84752,-11.839415 z"
           style="color:#000000;font-style:normal;font-variant:normal;font-weight:normal;font-stretch:normal;font-size:medium;line-height:normal;font-family:sans-serif;font-variant-ligatures:normal;font-variant-position:normal;font-variant-caps:normal;font-variant-numeric:normal;font-variant-alternates:normal;font-feature-settings:normal;text-indent:0;text-align:start;text-decoration:none;text-decoration-line:none;text-decoration-style:solid;text-decoration-color:#000000;letter-spacing:normal;word-spacing:normal;text-transform:none;writing-mode:lr-tb;direction:ltr;text-orientation:mixed;dominant-baseline:auto;baseline-shift:baseline;text-anchor:start;white-space:normal;shape-padding:0;clip-rule:nonzero;display:inline;overflow:visible;visibility:visible;opacity:1;isolation:auto;mix-blend-mode:normal;color-interpolation:sRGB;color-interpolation-filters:linearRGB;solid-color:#000000;solid-opacity:1;vector-effect:none;fill:#ffffff;fill-opacity:1;fill-rule:nonzero;stroke:none;stroke-width:5.49826;stroke-linecap:butt;stroke-linejoin:miter;stroke-miterlimit:4;stroke-dasharray:none;stroke-dashoffset:0;stroke-opacity:1;marker:none;color-rendering:auto;image-rendering:auto;shape-rendering:auto;text-rendering:auto;enable-background:accumulate" />
        <path
           id="path4747-2-9-7-4-7-3"
           d="m -323.28929,-51.569527 -1.35049,16.72736 -0.62172,7.700727 h 2.65567 l 0.62172,-7.700727 1.13608,-14.07156 h 21.69351 c 3.90984,0 7.29022,1.567441 9.62822,4.11126 l 2.03128,-1.879116 c -2.77965,-3.023815 -6.82218,-4.887944 -11.44509,-4.887944 z"
           style="color:#000000;font-style:normal;font-variant:normal;font-weight:normal;font-stretch:normal;font-size:medium;line-height:normal;font-family:sans-serif;font-variant-ligatures:normal;font-variant-position:normal;font-variant-caps:normal;font-variant-numeric:normal;font-variant-alternates:normal;font-feature-settings:normal;text-indent:0;text-align:start;text-decoration:none;text-decoration-line:none;text-decoration-style:solid;text-decoration-color:#000000;letter-spacing:normal;word-spacing:normal;text-transform:none;writing-mode:lr-tb;direction:ltr;text-orientation:mixed;dominant-baseline:auto;baseline-shift:baseline;text-anchor:start;white-space:normal;shape-padding:0;clip-rule:nonzero;display:inline;overflow:visible;visibility:visible;opacity:1;isolation:auto;mix-blend-mode:normal;color-interpolation:sRGB;color-interpolation-filters:linearRGB;solid-color:#000000;solid-opacity:1;vector-effect:none;fill:#ffffff;fill-opacity:1;fill-rule:nonzero;stroke:none;stroke-width:5.49826;stroke-linecap:butt;stroke-linejoin:miter;stroke-miterlimit:4;stroke-dasharray:none;stroke-dashoffset:0;stroke-opacity:1;marker:none;color-rendering:auto;image-rendering:auto;shape-rendering:auto;text-rendering:auto;enable-background:accumulate" />
        <path
           id="path4749-2-2-8-3-8-7"
           d="m -312.03571,-46.257907 -0.21443,2.655843 h 12.66678 c 2.43829,0 4.5396,0.973916 5.99558,2.557745 1.4562,1.583766 2.25776,3.763816 2.0609,6.202152 -0.19688,2.438612 -1.35042,4.618173 -3.06237,6.202151 -1.71172,1.58383 -3.97019,2.561694 -6.4089,2.561694 h -16.38153 l 0.70755,-8.763845 0.4073,-5.044886 h -2.65631 l -0.4073,5.044886 -0.92197,11.419687 h 19.03783 c 3.15178,0 6.12074,-1.274701 8.35076,-3.338419 2.23045,-2.063889 3.73659,-4.92968 3.99103,-8.081268 0.25443,-3.151377 -0.78894,-6.017465 -2.68614,-8.081226 -1.89679,-2.063676 -4.66023,-3.334514 -7.81201,-3.334514 z"
           style="color:#000000;font-style:normal;font-variant:normal;font-weight:normal;font-stretch:normal;font-size:medium;line-height:normal;font-family:sans-serif;font-variant-ligatures:normal;font-variant-position:normal;font-variant-caps:normal;font-variant-numeric:normal;font-variant-alternates:normal;font-feature-settings:normal;text-indent:0;text-align:start;text-decoration:none;text-decoration-line:none;text-decoration-style:solid;text-decoration-color:#000000;letter-spacing:normal;word-spacing:normal;text-transform:none;writing-mode:lr-tb;direction:ltr;text-orientation:mixed;dominant-baseline:auto;baseline-shift:baseline;text-anchor:start;white-space:normal;shape-padding:0;clip-rule:nonzero;display:inline;overflow:visible;visibility:visible;opacity:1;isolation:auto;mix-blend-mode:normal;color-interpolation:sRGB;color-interpolation-filters:linearRGB;solid-color:#000000;solid-opacity:1;vector-effect:none;fill:#ffffff;fill-opacity:1;fill-rule:nonzero;stroke:none;stroke-width:5.49826;stroke-linecap:butt;stroke-linejoin:miter;stroke-miterlimit:4;stroke-dasharray:none;stroke-dashoffset:0;stroke-opacity:1;marker:none;color-rendering:auto;image-rendering:auto;shape-rendering:auto;text-rendering:auto;enable-background:accumulate" />
        <path
           id="path4751-8-28-6-1-4-5"
           d="m -296.3399,-55.552313 c -0.10153,1.25757 -1.20344,2.277063 -2.46101,2.277063 -1.25736,0 -2.19465,-1.019493 -2.09312,-2.277063 0.10154,-1.257613 1.20345,-2.277107 2.46081,-2.277107 1.25757,0 2.19486,1.019494 2.09332,2.277107 z"
           style="opacity:1;fill:#ffffff;fill-opacity:1;stroke:none;stroke-width:5.49826;stroke-linecap:round;stroke-linejoin:round;stroke-miterlimit:4;stroke-dasharray:none;stroke-opacity:1" />
        <path
           id="path4753-9-9-8-4-5-9"
           d="m -286.23212,-45.740613 c -0.10153,1.257613 -1.20344,2.277106 -2.4608,2.277106 -1.25757,0 -2.19486,-1.019493 -2.09333,-2.277106 0.10153,-1.25757 1.20344,-2.277064 2.46101,-2.277064 1.25736,0 2.19465,1.019494 2.09312,2.277064 z"
           style="opacity:1;fill:#ffffff;fill-opacity:1;stroke:none;stroke-width:5.49826;stroke-linecap:round;stroke-linejoin:round;stroke-miterlimit:4;stroke-dasharray:none;stroke-opacity:1" />
        <path
           id="path4755-7-7-8-9-0-2"
           d="m -288.39414,-53.929636 c -0.10153,1.257527 -1.20342,2.276894 -2.46099,2.276894 -1.25736,0 -2.19466,-1.019367 -2.09314,-2.276894 0.10153,-1.25757 1.20344,-2.277064 2.4608,-2.277064 1.25757,0 2.19486,1.019494 2.09333,2.277064 z"
           style="opacity:1;fill:#ffffff;fill-opacity:1;stroke:none;stroke-width:5.49826;stroke-linecap:round;stroke-linejoin:round;stroke-miterlimit:4;stroke-dasharray:none;stroke-opacity:1" />
        <path
           id="path4757-3-3-4-2-3-2"
           d="m -284.53713,-20.181923 c -0.10153,1.257613 -1.20344,2.277107 -2.4608,2.277107 -1.25757,0 -2.19486,-1.019494 -2.09333,-2.277107 0.10153,-1.257527 1.20343,-2.276851 2.461,-2.276851 1.25735,0 2.19466,1.019324 2.09313,2.276851 z"
           style="opacity:1;fill:#ffffff;fill-opacity:1;stroke:none;stroke-width:5.49826;stroke-linecap:round;stroke-linejoin:round;stroke-miterlimit:4;stroke-dasharray:none;stroke-opacity:1" />
        <path
           id="path4759-6-6-3-0-6-8"
           d="m -299.68425,-14.128773 c -0.10154,1.257612 -1.20345,2.277106 -2.46102,2.277106 -1.2578,2.55e-4 -2.19508,-1.019324 -2.09354,-2.277106 0.10155,-1.257761 1.20347,-2.27734 2.46123,-2.277085 1.25757,0 2.19486,1.019472 2.09333,2.277085 z"
           style="opacity:1;fill:#ffffff;fill-opacity:1;stroke:none;stroke-width:5.49826;stroke-linecap:round;stroke-linejoin:round;stroke-miterlimit:4;stroke-dasharray:none;stroke-opacity:1" />
        <path
           id="path4761-1-1-1-6-1-9"
           d="m -282.6115,-34.840639 c -0.10154,1.257613 -1.20345,2.277106 -2.46081,2.277106 -1.25757,0 -2.19486,-1.019493 -2.09332,-2.277106 0.10153,-1.257528 1.20342,-2.276894 2.46099,-2.276894 1.25736,0 2.19466,1.019366 2.09314,2.276894 z"
           style="opacity:1;fill:#ffffff;fill-opacity:1;stroke:none;stroke-width:5.49826;stroke-linecap:round;stroke-linejoin:round;stroke-miterlimit:4;stroke-dasharray:none;stroke-opacity:1" />
        <path
           id="path4763-2-2-4-8-0-7"
           d="m -314.57835,-19.439566 c -0.10154,1.257613 -1.20302,2.277107 -2.4608,2.277107 -1.25757,0 -2.19486,-1.019494 -2.09333,-2.277107 0.10153,-1.25757 1.20344,-2.277063 2.46101,-2.277063 1.25778,0 2.19465,1.019493 2.09312,2.277063 z"
           style="opacity:1;fill:#ffffff;fill-opacity:1;stroke:none;stroke-width:5.49826;stroke-linecap:round;stroke-linejoin:round;stroke-miterlimit:4;stroke-dasharray:none;stroke-opacity:1" />
        <path
           id="path4765-9-9-9-9-6-3"
           d="m -326.34603,-34.840639 c -0.10154,1.257613 -1.20302,2.277106 -2.46101,2.277106 -1.25736,0 -2.19465,-1.019493 -2.09312,-2.277106 0.10153,-1.257528 1.20343,-2.276894 2.46079,-2.276894 1.25757,0 2.19487,1.019366 2.09334,2.276894 z"
           style="opacity:1;fill:#ffffff;fill-opacity:1;stroke:none;stroke-width:5.49826;stroke-linecap:round;stroke-linejoin:round;stroke-miterlimit:4;stroke-dasharray:none;stroke-opacity:1" />
        <path
           id="path4767-3-3-2-2-3-6"
           d="m -321.65725,-27.140081 c -0.10153,1.25757 -1.2028,2.277064 -2.46079,2.277064 -1.25757,0 -2.19486,-1.019494 -2.09333,-2.277064 0.10153,-1.257613 1.20344,-2.277106 2.46101,-2.277106 1.258,0 2.19465,1.019493 2.09311,2.277106 z"
           style="opacity:1;fill:#ffffff;fill-opacity:1;stroke:none;stroke-width:5.49826;stroke-linecap:round;stroke-linejoin:round;stroke-miterlimit:4;stroke-dasharray:none;stroke-opacity:1" />
        <path
           id="path4769-1-1-0-6-2-1"
           d="m -315.31709,-39.885694 c -0.10153,1.257612 -1.20302,2.277085 -2.4608,2.277085 -1.25757,0 -2.19486,-1.019473 -2.09333,-2.277085 0.10154,-1.25757 1.20344,-2.277064 2.46101,-2.277064 1.25779,0 2.19465,1.019494 2.09312,2.277064 z"
           style="opacity:1;fill:#ffffff;fill-opacity:1;stroke:none;stroke-width:5.49826;stroke-linecap:round;stroke-linejoin:round;stroke-miterlimit:4;stroke-dasharray:none;stroke-opacity:1" />
        <path
           id="path4771-9-9-6-6-0-2"
           d="m -309.86461,-44.930962 c -0.10154,1.257613 -1.20281,2.277106 -2.46081,2.277106 -1.25757,0 -2.19486,-1.019493 -2.09332,-2.277106 0.10195,-1.257528 1.20342,-2.276873 2.46099,-2.276873 1.25757,0 2.19466,1.019345 2.09314,2.276873 z"
           style="opacity:1;fill:#ffffff;fill-opacity:1;stroke:none;stroke-width:5.49826;stroke-linecap:round;stroke-linejoin:round;stroke-miterlimit:4;stroke-dasharray:none;stroke-opacity:1" />
        <path
           style="opacity:1;fill:#ffffff;fill-opacity:1;stroke:none;stroke-width:5.49826;stroke-linecap:round;stroke-linejoin:round;stroke-miterlimit:4;stroke-dasharray:none;stroke-opacity:1"
           d="m -324.67386,-55.552313 c -0.10153,1.25757 -1.20302,2.277063 -2.46101,2.277063 -1.25736,0 -2.19465,-1.019493 -2.09312,-2.277063 0.10154,-1.257613 1.20344,-2.277107 2.4608,-2.277107 1.258,0 2.19486,1.019494 2.09333,2.277107 z"
           id="path4773-4-4-8-4-6-9" />
      </g>
      <g
         aria-label="Printalyzer DensiStick"
         id="text20805-3"
         style="font-size:26.6667px;line-height:0.8;font-family:Arial;-inkscape-font-specification:Arial;fill:#ffffff">
        <path
           d="m 635.48403,247.95831 0.34667,-1.60001 h 1.6 l -0.34667,1.60001 z m -2.13334,0 0.34667,-1.60001 h 1.6 l -0.34666,1.60001 z m 1.68001,2.13333 0.34666,-1.6 h 1.60001 l -0.34667,1.6 z m -3.81334,-2.13333 0.34667,-1.60001 h 1.6 l -0.34667,1.60001 z m 3.36,4.26667 0.34667,-1.6 h 1.6 l -0.34667,1.6 z m -5.49334,-4.26667 0.34667,-1.60001 h 1.6 l -0.34667,1.60001 z m 5.04001,6.4 0.34667,-1.6 h 1.6 l -0.34667,1.6 z m -5.49334,-4.26667 0.34667,-1.6 h 1.6 l -0.34667,1.6 z m 5.04,6.40001 0.34667,-1.6 h 1.6 l -0.34666,1.6 z m -5.49334,-4.26667 0.34667,-1.6 h 1.6 l -0.34666,1.6 z m 5.04001,6.40001 0.34667,-1.60001 h 1.6 l -0.34667,1.60001 z m -5.49334,-4.26668 0.34667,-1.6 h 1.6 l -0.34667,1.6 z m 5.04001,6.40001 0.34666,-1.6 h 1.60001 l -0.34667,1.6 z m -5.49334,-4.26667 0.34666,-1.6 h 1.60001 l -0.34667,1.6 z m 3.36,4.26667 0.34667,-1.6 h 1.6 l -0.34667,1.6 z m -3.81334,-2.13333 0.34667,-1.60001 h 1.6 l -0.34667,1.60001 z m 1.68,2.13333 0.34667,-1.6 h 1.6 l -0.34666,1.6 z m -2.13333,0 0.34667,-1.6 h 1.6 l -0.34667,1.6 z m -0.45334,2.13334 0.34667,-1.6 h 1.6 l -0.34666,1.6 z"
           style="font-family:'Failed Attempt';-inkscape-font-specification:'Failed Attempt'"
           id="path5787" />
        <path
           d="m 645.24403,252.22498 0.34667,-1.6 h 1.6 l -0.34667,1.6 z m -2.13333,0 0.34666,-1.6 h 1.60001 l -0.34667,1.6 z m -2.13334,0 0.34667,-1.6 h 1.6 l -0.34667,1.6 z m -2.13334,0 0.34667,-1.6 h 1.6 l -0.34666,1.6 z m -0.45333,2.13333 0.34667,-1.6 h 1.6 l -0.34667,1.6 z m -0.45333,2.13334 0.34666,-1.6 h 1.60001 l -0.34667,1.6 z m -0.45334,2.13334 0.34667,-1.60001 h 1.6 l -0.34667,1.60001 z m -0.45333,2.13333 0.34667,-1.6 h 1.6 l -0.34667,1.6 z m -0.45334,2.13334 0.34667,-1.6 h 1.6 l -0.34666,1.6 z"
           style="font-family:'Failed Attempt';-inkscape-font-specification:'Failed Attempt'"
           id="path5789" />
        <path
           d="m 652.5507,247.95831 0.34666,-1.60001 h 1.60001 l -0.34667,1.60001 z m -0.90667,4.26667 0.34667,-1.6 h 1.6 l -0.34667,1.6 z m -2.13334,0 0.34667,-1.6 h 1.6 l -0.34666,1.6 z m 1.68001,2.13333 0.34666,-1.6 h 1.60001 l -0.34667,1.6 z m -0.45334,2.13334 0.34667,-1.6 h 1.6 l -0.34667,1.6 z m -0.45333,2.13334 0.34667,-1.60001 h 1.6 l -0.34667,1.60001 z m -0.45334,2.13333 0.34667,-1.6 h 1.6 l -0.34666,1.6 z m -0.45333,2.13334 0.34667,-1.6 h 1.6 l -0.34667,1.6 z"
           style="font-family:'Failed Attempt';-inkscape-font-specification:'Failed Attempt'"
           id="path5791" />
        <path
           d="m 662.3107,252.22498 0.34667,-1.6 h 1.6 l -0.34666,1.6 z m -2.13333,0 0.34666,-1.6 h 1.60001 l -0.34667,1.6 z m 1.68,2.13333 0.34667,-1.6 h 1.6 l -0.34667,1.6 z m -3.81334,-2.13333 0.34667,-1.6 h 1.6 l -0.34667,1.6 z m 3.36001,4.26667 0.34666,-1.6 h 1.6 l -0.34666,1.6 z m -5.49334,-4.26667 0.34666,-1.6 h 1.6 l -0.34666,1.6 z m 5.04,6.40001 0.34667,-1.60001 h 1.6 l -0.34667,1.60001 z m -5.49334,-4.26668 0.34667,-1.6 h 1.6 l -0.34667,1.6 z m 5.04001,6.40001 0.34667,-1.6 h 1.6 l -0.34667,1.6 z m -5.49334,-4.26667 0.34666,-1.6 h 1.60001 l -0.34667,1.6 z m 5.04,6.40001 0.34667,-1.6 h 1.6 l -0.34666,1.6 z m -5.49334,-4.26667 0.34667,-1.60001 h 1.6 l -0.34666,1.60001 z m -0.45333,2.13333 0.34667,-1.6 h 1.6 l -0.34667,1.6 z m -0.45333,2.13334 0.34666,-1.6 h 1.60001 l -0.34667,1.6 z"
           style="font-family:'Failed Attempt';-inkscape-font-specification:'Failed Attempt'"
           id="path5793" />
        <path
           d="m 669.61737,247.95831 0.34667,-1.60001 h 1.6 l -0.34667,1.60001 z m 3.36001,4.26667 0.34666,-1.6 h 1.6 l -0.34666,1.6 z m -3.81334,-2.13334 0.34666,-1.6 h 1.60001 l -0.34667,1.6 z m 1.68,2.13334 0.34667,-1.6 h 1.6 l -0.34667,1.6 z m -2.13334,0 0.34667,-1.6 h 1.6 l -0.34666,1.6 z m -2.13333,0 0.34666,-1.6 h 1.60001 l -0.34667,1.6 z m 1.68,2.13333 0.34667,-1.6 h 1.6 l -0.34667,1.6 z m -0.45333,2.13334 0.34666,-1.6 h 1.6 l -0.34666,1.6 z m -0.45334,2.13334 0.34667,-1.60001 h 1.6 l -0.34667,1.60001 z m 3.36001,4.26667 0.34666,-1.6 h 1.6 l -0.34666,1.6 z m -3.81334,-2.13334 0.34666,-1.6 h 1.60001 l -0.34667,1.6 z m 1.68,2.13334 0.34667,-1.6 h 1.6 l -0.34667,1.6 z m -2.13334,0 0.34667,-1.6 h 1.6 l -0.34666,1.6 z"
           style="font-family:'Failed Attempt';-inkscape-font-specification:'Failed Attempt'"
           id="path5795" />
        <path
           d="m 683.64404,252.22498 0.34667,-1.6 h 1.6 l -0.34666,1.6 z m -2.13333,0 0.34666,-1.6 h 1.60001 l -0.34667,1.6 z m 1.68,2.13333 0.34667,-1.6 h 1.6 l -0.34667,1.6 z m -3.81334,-2.13333 0.34667,-1.6 h 1.6 l -0.34667,1.6 z m 3.36001,4.26667 0.34666,-1.6 h 1.6 l -0.34666,1.6 z m -5.49334,-4.26667 0.34666,-1.6 h 1.6 l -0.34666,1.6 z m 5.04,6.40001 0.34667,-1.60001 h 1.6 l -0.34667,1.60001 z m -2.13333,0 0.34666,-1.60001 h 1.6 l -0.34666,1.60001 z m 1.68,2.13333 0.34666,-1.6 h 1.60001 l -0.34667,1.6 z m -3.81334,-2.13333 0.34667,-1.60001 h 1.6 l -0.34667,1.60001 z m 3.36,4.26667 0.34667,-1.6 h 1.6 l -0.34666,1.6 z m -5.49334,-4.26667 0.34667,-1.60001 h 1.6 l -0.34666,1.60001 z m 3.36001,4.26667 0.34666,-1.6 h 1.60001 l -0.34667,1.6 z m -3.81334,-2.13334 0.34667,-1.6 h 1.6 l -0.34667,1.6 z m 1.68,2.13334 0.34667,-1.6 h 1.6 l -0.34667,1.6 z m -2.13333,0 0.34666,-1.6 h 1.6 l -0.34666,1.6 z"
           style="font-family:'Failed Attempt';-inkscape-font-specification:'Failed Attempt'"
           id="path5797" />
        <path
           d="m 688.81737,247.95831 0.34667,-1.60001 h 1.6 l -0.34666,1.60001 z m -0.45333,2.13333 0.34667,-1.6 h 1.6 l -0.34667,1.6 z m -0.45333,2.13334 0.34666,-1.6 h 1.60001 l -0.34667,1.6 z m -0.45334,2.13333 0.34667,-1.6 h 1.6 l -0.34666,1.6 z m -0.45333,2.13334 0.34667,-1.6 h 1.6 l -0.34667,1.6 z m -0.45333,2.13334 0.34666,-1.60001 h 1.6 l -0.34666,1.60001 z m -0.45334,2.13333 0.34667,-1.6 h 1.6 l -0.34667,1.6 z m -0.45333,2.13334 0.34666,-1.6 h 1.60001 l -0.34667,1.6 z"
           style="font-family:'Failed Attempt';-inkscape-font-specification:'Failed Attempt'"
           id="path5799" />
        <path
           d="m 698.31071,252.22498 0.34666,-1.6 h 1.60001 l -0.34667,1.6 z m -0.45334,2.13333 0.34667,-1.6 h 1.6 l -0.34666,1.6 z m -0.45333,2.13334 0.34667,-1.6 h 1.6 l -0.34667,1.6 z m -5.49334,-4.26667 0.34667,-1.6 h 1.6 l -0.34667,1.6 z m 5.04001,6.40001 0.34666,-1.60001 h 1.6 l -0.34666,1.60001 z m -5.49334,-4.26668 0.34666,-1.6 h 1.6 l -0.34666,1.6 z m 3.36,4.26668 0.34667,-1.60001 h 1.6 l -0.34667,1.60001 z m 1.68,2.13333 0.34667,-1.6 h 1.6 l -0.34667,1.6 z m -5.49334,-4.26667 0.34667,-1.6 h 1.6 l -0.34667,1.6 z m 1.68,2.13334 0.34667,-1.60001 h 1.6 l -0.34666,1.60001 z m 3.36001,4.26667 0.34667,-1.6 h 1.6 l -0.34667,1.6 z m -5.49334,-4.26667 0.34666,-1.60001 h 1.60001 l -0.34667,1.60001 z m 3.36,4.26667 0.34667,-1.6 h 1.6 l -0.34667,1.6 z m -2.13333,0 0.34666,-1.6 h 1.6 l -0.34666,1.6 z m -2.13334,0 0.34667,-1.6 h 1.6 l -0.34667,1.6 z"
           style="font-family:'Failed Attempt';-inkscape-font-specification:'Failed Attempt'"
           id="path5801" />
        <path
           d="m 708.97738,252.22498 0.34667,-1.6 h 1.6 l -0.34667,1.6 z m -2.13334,0 0.34667,-1.6 h 1.6 l -0.34666,1.6 z m 1.68001,2.13333 0.34666,-1.6 h 1.6 l -0.34666,1.6 z m -3.81334,-2.13333 0.34666,-1.6 h 1.60001 l -0.34667,1.6 z m 3.36,4.26667 0.34667,-1.6 h 1.6 l -0.34667,1.6 z m -5.49334,-4.26667 0.34667,-1.6 h 1.6 l -0.34667,1.6 z m 5.04001,6.40001 0.34666,-1.60001 h 1.60001 l -0.34667,1.60001 z m -2.13334,0 0.34667,-1.60001 h 1.6 l -0.34667,1.60001 z m -2.13333,0 0.34666,-1.60001 h 1.6 l -0.34666,1.60001 z m 3.36,4.26667 0.34667,-1.6 h 1.6 l -0.34667,1.6 z m -5.49334,-4.26667 0.34667,-1.60001 h 1.6 l -0.34667,1.60001 z m 3.36,4.26667 0.34667,-1.6 h 1.6 l -0.34666,1.6 z m -3.81333,-2.13334 0.34666,-1.6 h 1.6 l -0.34666,1.6 z m 1.68,2.13334 0.34666,-1.6 h 1.60001 l -0.34667,1.6 z m -2.13334,0 0.34667,-1.6 h 1.6 l -0.34667,1.6 z"
           style="font-family:'Failed Attempt';-inkscape-font-specification:'Failed Attempt'"
           id="path5803" />
        <path
           d="m 719.64405,252.22498 0.34667,-1.6 h 1.6 l -0.34667,1.6 z m -2.13334,0 0.34667,-1.6 h 1.6 l -0.34666,1.6 z m 1.68001,2.13333 0.34666,-1.6 h 1.60001 l -0.34667,1.6 z m -3.81334,-2.13333 0.34667,-1.6 h 1.6 l -0.34667,1.6 z m 3.36,4.26667 0.34667,-1.6 h 1.6 l -0.34666,1.6 z m -5.49334,-4.26667 0.34667,-1.6 h 1.6 l -0.34667,1.6 z m 5.04001,6.40001 0.34667,-1.60001 h 1.6 l -0.34667,1.60001 z m -5.49334,-4.26668 0.34667,-1.6 h 1.6 l -0.34667,1.6 z m 3.36,4.26668 0.34667,-1.60001 h 1.6 l -0.34666,1.60001 z m -3.81333,-2.13334 0.34666,-1.6 h 1.6 l -0.34666,1.6 z m 1.68,2.13334 0.34666,-1.60001 h 1.60001 l -0.34667,1.60001 z m 3.36,4.26667 0.34667,-1.6 h 1.6 l -0.34667,1.6 z m -5.49334,-4.26667 0.34667,-1.60001 h 1.6 l -0.34667,1.60001 z m 3.36001,4.26667 0.34666,-1.6 h 1.6 l -0.34666,1.6 z m -3.81334,-2.13334 0.34666,-1.6 h 1.60001 l -0.34667,1.6 z m 1.68,2.13334 0.34667,-1.6 h 1.6 l -0.34667,1.6 z m -2.13334,0 0.34667,-1.6 h 1.6 l -0.34666,1.6 z"
           style="font-family:'Failed Attempt';-inkscape-font-specification:'Failed Attempt'"
           id="path5805" />
        <path
           d="m 730.31072,252.22498 0.34666,-1.6 h 1.6 l -0.34666,1.6 z m -2.13334,0 0.34667,-1.6 h 1.6 l -0.34667,1.6 z m -2.13334,0 0.34667,-1.6 h 1.6 l -0.34666,1.6 z m -2.13333,0 0.34666,-1.6 h 1.60001 l -0.34667,1.6 z m -0.45334,2.13333 0.34667,-1.6 h 1.6 l -0.34666,1.6 z m -0.45333,2.13334 0.34667,-1.6 h 1.6 l -0.34667,1.6 z m -0.45333,2.13334 0.34666,-1.60001 h 1.6 l -0.34666,1.60001 z m -0.45334,2.13333 0.34667,-1.6 h 1.6 l -0.34667,1.6 z m -0.45333,2.13334 0.34666,-1.6 h 1.60001 l -0.34667,1.6 z"
           style="font-family:'Failed Attempt';-inkscape-font-specification:'Failed Attempt'"
           id="path5807" />
        <path
           d="m 635.48403,270.42558 0.34667,-1.6 h 1.6 l -0.34667,1.6 z m -2.13334,0 0.34667,-1.6 h 1.6 l -0.34666,1.6 z m 1.68001,2.13334 0.34666,-1.6 h 1.60001 l -0.34667,1.6 z m -3.81334,-2.13334 0.34667,-1.6 h 1.6 l -0.34667,1.6 z m 3.36,4.26667 0.34667,-1.6 h 1.6 l -0.34667,1.6 z m -5.49334,-4.26667 0.34667,-1.6 h 1.6 l -0.34667,1.6 z m 1.68,2.13334 0.34667,-1.6 h 1.6 l -0.34666,1.6 z m 3.36001,4.26667 0.34667,-1.6 h 1.6 l -0.34667,1.6 z m -3.81334,-2.13334 0.34667,-1.6 h 1.6 l -0.34667,1.6 z m 3.36,4.26668 0.34667,-1.60001 h 1.6 l -0.34666,1.60001 z m -3.81333,-2.13334 0.34666,-1.6 h 1.60001 l -0.34667,1.6 z m 3.36,4.26667 0.34667,-1.6 h 1.6 l -0.34667,1.6 z m -3.81334,-2.13333 0.34667,-1.60001 h 1.6 l -0.34667,1.60001 z m 3.36001,4.26667 0.34666,-1.6 h 1.60001 l -0.34667,1.6 z m -3.81334,-2.13334 0.34667,-1.6 h 1.6 l -0.34667,1.6 z m 3.36,4.26667 0.34667,-1.6 h 1.6 l -0.34667,1.6 z m -3.81334,-2.13333 0.34667,-1.6 h 1.6 l -0.34666,1.6 z m 1.68001,2.13333 0.34666,-1.6 h 1.60001 l -0.34667,1.6 z m -2.13334,0 0.34667,-1.6 h 1.6 l -0.34667,1.6 z m -2.13334,0 0.34667,-1.6 h 1.6 l -0.34666,1.6 z"
           style="font-family:'Failed Attempt';-inkscape-font-specification:'Failed Attempt'"
           id="path5809" />
        <path
           d="m 645.24403,274.69225 0.34667,-1.6 h 1.6 l -0.34667,1.6 z m -2.13333,0 0.34666,-1.6 h 1.60001 l -0.34667,1.6 z m 1.68,2.13334 0.34667,-1.6 h 1.6 l -0.34667,1.6 z m -3.81334,-2.13334 0.34667,-1.6 h 1.6 l -0.34667,1.6 z m 3.36,4.26668 0.34667,-1.60001 h 1.6 l -0.34666,1.60001 z m -5.49334,-4.26668 0.34667,-1.6 h 1.6 l -0.34666,1.6 z m 5.04001,6.40001 0.34667,-1.6 h 1.6 l -0.34667,1.6 z m -5.49334,-4.26667 0.34667,-1.6 h 1.6 l -0.34667,1.6 z m 3.36,4.26667 0.34667,-1.6 h 1.6 l -0.34666,1.6 z m -3.81333,-2.13333 0.34666,-1.60001 h 1.60001 l -0.34667,1.60001 z m 1.68,2.13333 0.34667,-1.6 h 1.6 l -0.34667,1.6 z m 3.36,4.26667 0.34667,-1.6 h 1.6 l -0.34667,1.6 z m -5.49334,-4.26667 0.34667,-1.6 h 1.6 l -0.34667,1.6 z m 3.36001,4.26667 0.34666,-1.6 h 1.60001 l -0.34667,1.6 z m -3.81334,-2.13333 0.34667,-1.6 h 1.6 l -0.34667,1.6 z m 1.68,2.13333 0.34667,-1.6 h 1.6 l -0.34667,1.6 z m -2.13334,0 0.34667,-1.6 h 1.6 l -0.34666,1.6 z"
           style="font-family:'Failed Attempt';-inkscape-font-specification:'Failed Attempt'"
           id="path5811" />
        <path
           d="m 655.9107,274.69225 0.34667,-1.6 h 1.6 l -0.34667,1.6 z m -2.13333,0 0.34666,-1.6 h 1.60001 l -0.34667,1.6 z m 1.68,2.13334 0.34667,-1.6 h 1.6 l -0.34667,1.6 z m -3.81334,-2.13334 0.34667,-1.6 h 1.6 l -0.34667,1.6 z m 3.36,4.26668 0.34667,-1.60001 h 1.6 l -0.34666,1.60001 z m -5.49334,-4.26668 0.34667,-1.6 h 1.6 l -0.34666,1.6 z m 5.04001,6.40001 0.34667,-1.6 h 1.6 l -0.34667,1.6 z m -5.49334,-4.26667 0.34667,-1.6 h 1.6 l -0.34667,1.6 z m 5.04001,6.40001 0.34666,-1.6 h 1.60001 l -0.34667,1.6 z m -5.49334,-4.26667 0.34666,-1.60001 h 1.60001 l -0.34667,1.60001 z m 5.04,6.4 0.34667,-1.6 h 1.6 l -0.34667,1.6 z m -5.49334,-4.26667 0.34667,-1.6 h 1.6 l -0.34667,1.6 z m -0.45333,2.13334 0.34667,-1.6 h 1.6 l -0.34667,1.6 z m -0.45334,2.13333 0.34667,-1.6 h 1.6 l -0.34666,1.6 z"
           style="font-family:'Failed Attempt';-inkscape-font-specification:'Failed Attempt'"
           id="path5813" />
        <path
           d="m 666.57737,274.69225 0.34667,-1.6 h 1.6 l -0.34667,1.6 z m -2.13334,0 0.34667,-1.6 h 1.6 l -0.34666,1.6 z m -2.13333,0 0.34667,-1.6 h 1.6 l -0.34667,1.6 z m -2.13334,0 0.34667,-1.6 h 1.6 l -0.34667,1.6 z m 5.04001,6.40001 0.34667,-1.6 h 1.6 l -0.34667,1.6 z m -5.49334,-4.26667 0.34667,-1.6 h 1.6 l -0.34667,1.6 z m 3.36,4.26667 0.34667,-1.6 h 1.6 l -0.34667,1.6 z m 1.68,2.13334 0.34667,-1.6 h 1.6 l -0.34666,1.6 z m -5.49334,-4.26667 0.34667,-1.60001 h 1.6 l -0.34666,1.60001 z m 1.68001,2.13333 0.34666,-1.6 h 1.60001 l -0.34667,1.6 z m 3.36,4.26667 0.34667,-1.6 h 1.6 l -0.34667,1.6 z m -5.49334,-4.26667 0.34667,-1.6 h 1.6 l -0.34667,1.6 z m 3.36,4.26667 0.34667,-1.6 h 1.6 l -0.34666,1.6 z m -2.13333,0 0.34667,-1.6 h 1.6 l -0.34667,1.6 z m -2.13334,0 0.34667,-1.6 h 1.6 l -0.34667,1.6 z"
           style="font-family:'Failed Attempt';-inkscape-font-specification:'Failed Attempt'"
           id="path5815" />
        <path
           d="m 673.88404,270.42558 0.34666,-1.6 h 1.60001 l -0.34667,1.6 z m -0.90667,4.26667 0.34667,-1.6 h 1.6 l -0.34667,1.6 z m -2.13334,0 0.34667,-1.6 h 1.6 l -0.34666,1.6 z m 1.68001,2.13334 0.34666,-1.6 h 1.6 l -0.34666,1.6 z m -0.45334,2.13334 0.34667,-1.60001 h 1.6 l -0.34667,1.60001 z m -0.45333,2.13333 0.34667,-1.6 h 1.6 l -0.34667,1.6 z m -0.45334,2.13334 0.34667,-1.6 h 1.6 l -0.34666,1.6 z m -0.45333,2.13333 0.34667,-1.6 h 1.6 l -0.34667,1.6 z"
           style="font-family:'Failed Attempt';-inkscape-font-specification:'Failed Attempt'"
           id="path5817" />
        <path
           d="m 684.55071,270.42558 0.34667,-1.6 h 1.6 l -0.34667,1.6 z m -2.13333,0 0.34666,-1.6 h 1.6 l -0.34666,1.6 z m -2.13334,0 0.34667,-1.6 h 1.6 l -0.34667,1.6 z m -2.13334,0 0.34667,-1.6 h 1.6 l -0.34666,1.6 z m -0.45333,2.13334 0.34667,-1.6 h 1.6 l -0.34667,1.6 z m -0.45333,2.13333 0.34666,-1.6 h 1.6 l -0.34666,1.6 z m 5.04,6.40001 0.34667,-1.6 h 1.6 l -0.34667,1.6 z m -5.49334,-4.26667 0.34667,-1.6 h 1.6 l -0.34667,1.6 z m 3.36001,4.26667 0.34666,-1.6 h 1.6 l -0.34666,1.6 z m 1.68,2.13334 0.34666,-1.6 h 1.60001 l -0.34667,1.6 z m -5.49334,-4.26667 0.34666,-1.60001 h 1.60001 l -0.34667,1.60001 z m 1.68,2.13333 0.34667,-1.6 h 1.6 l -0.34667,1.6 z m 3.36,4.26667 0.34667,-1.6 h 1.6 l -0.34666,1.6 z m -5.49334,-4.26667 0.34667,-1.6 h 1.6 l -0.34666,1.6 z m 3.36001,4.26667 0.34666,-1.6 h 1.60001 l -0.34667,1.6 z m -2.13334,0 0.34667,-1.6 h 1.6 l -0.34667,1.6 z m -2.13333,0 0.34666,-1.6 h 1.6 l -0.34666,1.6 z"
           style="font-family:'Failed Attempt';-inkscape-font-specification:'Failed Attempt'"
           id="path5819" />
        <path
           d="m 689.45733,270.42558 0.34667,-1.6 h 1.6 l -0.34667,1.6 z m 3.36,4.26667 0.34667,-1.6 h 1.6 l -0.34666,1.6 z m -3.81333,-2.13333 0.34666,-1.6 h 1.6 l -0.34666,1.6 z m 1.68,2.13333 0.34666,-1.6 h 1.60001 l -0.34667,1.6 z m -2.13334,0 0.34667,-1.6 h 1.6 l -0.34667,1.6 z m -2.13333,0 0.34666,-1.6 h 1.6 l -0.34666,1.6 z m 1.68,2.13334 0.34666,-1.6 h 1.60001 l -0.34667,1.6 z m -0.45334,2.13334 0.34667,-1.60001 h 1.6 l -0.34666,1.60001 z m -0.45333,2.13333 0.34667,-1.6 h 1.6 l -0.34667,1.6 z m 3.36,4.26667 0.34667,-1.6 h 1.6 l -0.34666,1.6 z m -3.81333,-2.13333 0.34666,-1.6 h 1.60001 l -0.34667,1.6 z m 1.68,2.13333 0.34667,-1.6 h 1.6 l -0.34667,1.6 z m -2.13334,0 0.34667,-1.6 h 1.6 l -0.34667,1.6 z"
           style="font-family:'Failed Attempt';-inkscape-font-specification:'Failed Attempt'"
           id="path5821" />
        <path
           d="m 700.124,270.42558 0.34666,-1.6 h 1.60001 l -0.34667,1.6 z m -0.90667,4.26667 0.34667,-1.6 h 1.6 l -0.34667,1.6 z m -2.13334,0 0.34667,-1.6 h 1.6 l -0.34666,1.6 z m 1.68001,2.13334 0.34666,-1.6 h 1.6 l -0.34666,1.6 z m -0.45334,2.13334 0.34667,-1.60001 h 1.6 l -0.34667,1.60001 z m -0.45333,2.13333 0.34666,-1.6 h 1.60001 l -0.34667,1.6 z m -0.45334,2.13334 0.34667,-1.6 h 1.6 l -0.34666,1.6 z m -0.45333,2.13333 0.34667,-1.6 h 1.6 l -0.34667,1.6 z"
           style="font-family:'Failed Attempt';-inkscape-font-specification:'Failed Attempt'"
           id="path5823" />
        <path
           d="m 709.884,274.69225 0.34667,-1.6 h 1.6 l -0.34666,1.6 z m -2.13333,0 0.34666,-1.6 h 1.60001 l -0.34667,1.6 z m -2.13334,0 0.34667,-1.6 h 1.6 l -0.34667,1.6 z m -2.13334,0 0.34667,-1.6 h 1.6 l -0.34666,1.6 z m -0.45333,2.13334 0.34667,-1.6 h 1.6 l -0.34667,1.6 z m -0.45333,2.13334 0.34666,-1.60001 h 1.60001 l -0.34667,1.60001 z m 5.04,6.4 0.34667,-1.6 h 1.6 l -0.34666,1.6 z m -5.49334,-4.26667 0.34667,-1.6 h 1.6 l -0.34666,1.6 z m 3.36001,4.26667 0.34666,-1.6 h 1.60001 l -0.34667,1.6 z m -3.81334,-2.13333 0.34667,-1.6 h 1.6 l -0.34667,1.6 z m 1.68,2.13333 0.34667,-1.6 h 1.6 l -0.34667,1.6 z m -2.13333,0 0.34666,-1.6 h 1.6 l -0.34666,1.6 z"
           style="font-family:'Failed Attempt';-inkscape-font-specification:'Failed Attempt'"
           id="path5825" />
        <path
           d="m 720.73734,274.69225 0.34667,-1.6 h 1.6 l -0.34667,1.6 z m -5.49334,-4.26667 0.34667,-1.6 h 1.6 l -0.34667,1.6 z m 5.04001,6.40001 0.34666,-1.6 h 1.60001 l -0.34667,1.6 z m -5.49334,-4.26667 0.34666,-1.6 h 1.60001 l -0.34667,1.6 z m 3.36,4.26667 0.34667,-1.6 h 1.6 l -0.34667,1.6 z m -3.81334,-2.13334 0.34667,-1.6 h 1.6 l -0.34666,1.6 z m 1.68001,2.13334 0.34666,-1.6 h 1.6 l -0.34666,1.6 z m 3.36,4.26667 0.34667,-1.6 h 1.6 l -0.34667,1.6 z m -5.49334,-4.26667 0.34667,-1.6 h 1.6 l -0.34667,1.6 z m 3.36,4.26667 0.34667,-1.6 h 1.6 l -0.34666,1.6 z m 1.68001,2.13334 0.34666,-1.6 h 1.60001 l -0.34667,1.6 z m -5.49334,-4.26667 0.34666,-1.60001 h 1.6 l -0.34666,1.60001 z m 1.68,2.13333 0.34667,-1.6 h 1.6 l -0.34667,1.6 z m 3.36,4.26667 0.34667,-1.6 h 1.6 l -0.34667,1.6 z m -5.49334,-4.26667 0.34667,-1.6 h 1.6 l -0.34667,1.6 z m -0.45333,2.13334 0.34667,-1.6 h 1.6 l -0.34667,1.6 z m -0.45334,2.13333 0.34667,-1.6 h 1.6 l -0.34666,1.6 z"
           style="font-family:'Failed Attempt';-inkscape-font-specification:'Failed Attempt'"
           id="path5827" />
      </g>
    </g>
  </g>
</svg>
