0
SECTION
2
HEADER
9
$INSUNITS
70
4
9
$ACADVER
1
AC1014
9
$HANDSEED
5
FFFF
0
ENDSEC
0
SECTION
2
TABLES
0
TABLE
2
VPORT
5
8
100
AcDbSymbolTable
0
ENDTAB
0
TABLE
2
LTYPE
5
5
100
AcDbSymbolTable
0
LTYPE
5
14
100
AcDbSymbolTableRecord
100
AcDbLinetypeTableRecord
2
BYBLOCK
70
0
0
LTYPE
5
15
100
AcDbSymbolTableRecord
100
AcDbLinetypeTableRecord
2
BYLAYER
70
0
0
ENDTAB
0
TABLE
2
LAYER
5
2
100
AcDbSymbolTable
70
2
0
LAYER
5
50
100
AcDbSymbolTableRecord
100
AcDbLayerTableRecord
2
0
70
0
6
CONTINUOUS
0
ENDTAB
0
TABLE
2
STYLE
5
3
100
AcDbSymbolTable
70
1
0
STYLE
5
11
100
AcDbSymbolTableRecord
100
AcDbTextStyleTableRecord
2
STANDARD
70
0
0
ENDTAB
0
TABLE
2
VIEW
5
6
100
AcDbSymbolTable
70
0
0
ENDTAB
0
TABLE
2
UCS
5
7
100
AcDbSymbolTable
70
0
0
ENDTAB
0
TABLE
2
APPID
5
9
100
AcDbSymbolTable
70
2
0
APPID
5
12
100
AcDbSymbolTableRecord
100
AcDbRegAppTableRecord
2
ACAD
70
0
0
ENDTAB
0
TABLE
2
DIMSTYLE
5
A
100
AcDbSymbolTable
70
1
0
ENDTAB
0
TABLE
2
BLOCK_RECORD
5
1
100
AcDbSymbolTable
70
1
0
BLOCK_RECORD
5
1F
100
AcDbSymbolTableRecord
100
AcDbBlockTableRecord
2
*MODEL_SPACE
0
BLOCK_RECORD
5
1B
100
AcDbSymbolTableRecord
100
AcDbBlockTableRecord
2
*PAPER_SPACE
0
ENDTAB
0
ENDSEC
0
SECTION
2
BLOCKS
0
BLOCK
5
20
100
AcDbEntity
100
AcDbBlockBegin
2
*MODEL_SPACE
0
ENDBLK
5
21
100
AcDbEntity
100
AcDbBlockEnd
0
BLOCK
5
1C
100
AcDbEntity
100
AcDbBlockBegin
2
*PAPER_SPACE
0
ENDBLK
5
1D
100
AcDbEntity
100
AcDbBlockEnd
0
ENDSEC
0
SECTION
2
ENTITIES
0
LWPOLYLINE
5
100
100
AcDbEntity
8
OUTER_PROFILES
100
AcDbPolyline
90
40
70
1
43
0.0
10
235.57867210540309
20
194.21433605270147
10
235.57867210540306
20
154.713211762675
42
-0.39393170531060739
10
234.18319681680455
20
153.21685799945374
10
221.97867210540309
20
152.36433605270142
10
219.26433605270145
20
153.31433605270144
10
221.6643360527014
20
150.60000000000008
10
221.6643360527014
20
137.30000000000007
42
-0.41421356237310197
10
220.16433605270137
20
135.80000000000007
10
218.66433605270149
20
135.8000000000001
10
218.66433605270149
20
134.60000000000008
10
234.3286721054028
20
134.60000000000008
42
-0.41421356237309853
10
235.8286721054028
20
133.10000000000005
10
235.82867210540289
20
1.5000000000000036
42
-0.41421356237309503
10
234.32867210540286
20
3.8857805861880479e-14
10
0
20
2.1094237467877974e-14
42
-0.41421356237308982
10
-1.5000000000000091
20
1.4999999999999858
10
-1.4999999999999365
20
133.10000000000005
42
-0.41421356237309742
10
5.8860994097659767e-14
20
134.60000000000005
10
15.664336052701364
20
134.60000000000008
10
15.664336052701364
20
135.8000000000001
10
14.16433605270141
20
135.80000000000007
42
-0.41421356237309764
10
12.664336052701412
20
137.3000000000001
10
12.66433605270141
20
150.60000000000008
10
15.064336052701377
20
153.31433605270144
10
12.349999999999756
20
152.36433605270142
10
0.14547528859831349
20
153.21685799945374
42
-0.39393170531060756
10
-1.2500000000001907
20
154.713211762675
10
-1.2500000000002132
20
194.21433605270147
42
-0.41421356237309681
10
0.24999999999978154
20
195.71433605270144
10
15.66433605270138
20
195.71433605270144
10
15.66433605270138
20
196.91433605270146
10
12.66433605270139
20
196.91433605270146
10
12.66433605270139
20
201.41433605270146
42
-0.41421356237309287
10
14.164336052701401
20
202.91433605270143
10
220.1643360527014
20
202.91433605270143
42
-0.41421356237309503
10
221.6643360527014
20
201.41433605270146
10
221.66433605270146
20
196.91433605270146
10
218.66433605270143
20
196.91433605270146
10
218.66433605270143
20
195.71433605270144
10
234.07867210540306
20
195.71433605270144
42
-0.41421356237309503
0
CIRCLE
5
101
100
AcDbEntity
8
INTERIOR_PROFILES
100
AcDbCircle
10
-5.3000000000000114
20
6.3500000000000512
30
0
40
2.7050000000000018
210
0
220
0
230
-1
0
CIRCLE
5
102
100
AcDbEntity
8
INTERIOR_PROFILES
100
AcDbCircle
10
-25.664336052701419
20
90.799999999999983
30
0
40
2.1099999999999985
210
0
220
0
230
-1
0
CIRCLE
5
103
100
AcDbEntity
8
INTERIOR_PROFILES
100
AcDbCircle
10
-208.66433605270143
20
90.799999999999983
30
0
40
2.1099999999999852
210
0
220
0
230
-1
0
CIRCLE
5
104
100
AcDbEntity
8
INTERIOR_PROFILES
100
AcDbCircle
10
-228.77867210540307
20
180.91433605270146
30
0
40
2.7049999999999841
210
0
220
0
230
-1
0
CIRCLE
5
105
100
AcDbEntity
8
INTERIOR_PROFILES
100
AcDbCircle
10
-5.3000000000000806
20
128.25000000000011
30
0
40
2.7050000000000018
210
0
220
0
230
-1
0
CIRCLE
5
106
100
AcDbEntity
8
INTERIOR_PROFILES
100
AcDbCircle
10
-229.02867210540285
20
6.3500000000000689
30
0
40
2.7050000000000018
210
0
220
0
230
-1
0
CIRCLE
5
107
100
AcDbEntity
8
INTERIOR_PROFILES
100
AcDbCircle
10
-229.02867210540276
20
128.25000000000011
30
0
40
2.7050000000000018
210
0
220
0
230
-1
0
CIRCLE
5
108
100
AcDbEntity
8
INTERIOR_PROFILES
100
AcDbCircle
10
-23.76433605270142
20
163.11433605270156
30
0
40
1.6000000000000014
210
0
220
0
230
-1
0
LWPOLYLINE
5
109
100
AcDbEntity
8
INTERIOR_PROFILES
100
AcDbPolyline
90
8
70
1
43
0.0
10
141.11433605270145
20
171.31433605270158
42
-0.41421356237309503
10
133.11433605270142
20
163.31433605270155
10
114.21433605270141
20
163.31433605270155
42
-0.41421356237309503
10
106.21433605270143
20
171.31433605270158
10
106.21433605270141
20
181.71433605270155
42
-0.41421356237309503
10
114.21433605270141
20
189.71433605270158
10
133.11433605270142
20
189.71433605270158
42
-0.41421356237309503
10
141.11433605270145
20
181.71433605270155
0
CIRCLE
5
110
100
AcDbEntity
8
INTERIOR_PROFILES
100
AcDbCircle
10
-143.66433605270143
20
176.51433605270157
30
0
40
1.7499999999999893
210
0
220
0
230
-1
0
LWPOLYLINE
5
111
100
AcDbEntity
8
INTERIOR_PROFILES
100
AcDbPolyline
90
8
70
1
43
0.0
10
90.114336052701404
20
171.31433605270158
10
90.114336052701418
20
181.71433605270155
42
0.41421356237309503
10
82.114336052701418
20
189.71433605270158
10
63.214336052701412
20
189.71433605270153
42
0.4142135623730947
10
55.214336052701412
20
181.71433605270153
10
55.214336052701434
20
171.31433605270155
42
0.41421356237309503
10
63.214336052701405
20
163.31433605270155
10
82.11433605270139
20
163.31433605270155
42
0.41421356237309503
0
LWPOLYLINE
5
112
100
AcDbEntity
8
INTERIOR_PROFILES
100
AcDbPolyline
90
8
70
1
43
0.0
10
197.46433605271957
20
187.66433605269907
10
178.86433605270025
20
187.66433605270035
42
0.41421356237309681
10
172.96433605270053
20
181.7643360527006
10
172.96433605268925
20
170.96433605270249
42
0.41421356237312323
10
178.86433605269241
20
165.06433605269996
10
197.46433605269351
20
165.06433605271621
42
0.41421356237156243
10
203.36433605267473
20
170.96433605266759
10
203.36433605273029
20
181.76433605265797
42
0.41421356237460299
0
CIRCLE
5
113
100
AcDbEntity
8
INTERIOR_PROFILES
100
AcDbCircle
10
-168.1643360527014
20
176.36433605273163
30
0
40
1.7999999999999972
210
0
220
0
230
-1
0
CIRCLE
5
114
100
AcDbEntity
8
INTERIOR_PROFILES
100
AcDbCircle
10
-92.664336052701387
20
176.51433605270157
30
0
40
1.7499999999999893
210
0
220
0
230
-1
0
CIRCLE
5
115
100
AcDbEntity
8
INTERIOR_PROFILES
100
AcDbCircle
10
-208.16433605270103
20
176.36433605270156
30
0
40
1.7999999999999972
210
0
220
0
230
-1
0
CIRCLE
5
116
100
AcDbEntity
8
INTERIOR_PROFILES
100
AcDbCircle
10
-52.664336052701387
20
176.51433605270165
30
0
40
1.7499999999999982
210
0
220
0
230
-1
0
CIRCLE
5
117
100
AcDbEntity
8
INTERIOR_PROFILES
100
AcDbCircle
10
-155.91433605270143
20
166.96433605270155
30
0
40
6.4500000000000135
210
0
220
0
230
-1
0
CIRCLE
5
118
100
AcDbEntity
8
INTERIOR_PROFILES
100
AcDbCircle
10
-43.564336052701421
20
182.91433605270157
30
0
40
1.6000000000000014
210
0
220
0
230
-1
0
LWPOLYLINE
5
119
100
AcDbEntity
8
INTERIOR_PROFILES
100
AcDbPolyline
90
4
70
1
43
0.0
10
149.46433605270141
20
179.41433605270157
10
162.36433605270145
20
179.41433605270157
10
162.36433605270145
20
198.61433605270156
10
149.46433605270141
20
198.61433605270156
0
CIRCLE
5
120
100
AcDbEntity
8
INTERIOR_PROFILES
100
AcDbCircle
10
-33.664336052701422
20
173.01433605270154
30
0
40
11.199999999999992
210
0
220
0
230
-1
0
CIRCLE
5
121
100
AcDbEntity
8
INTERIOR_PROFILES
100
AcDbCircle
10
-103.66433605270143
20
176.51433605270157
30
0
40
1.7500000000000071
210
0
220
0
230
-1
0
CIRCLE
5
122
100
AcDbEntity
8
INTERIOR_PROFILES
100
AcDbCircle
10
-5.5499999999997938
20
180.91433605270143
30
0
40
2.7050000000000018
210
0
220
0
230
-1
0
LINE
5
123
100
AcDbEntity
8
BEND
100
AcDbLine
10
13.707168026350685
20
1.7763568394002505e-14
30
-1.5836582300616047e-13
11
13.707168026350725
21
134.60000000000011
31
-5.9470362376611305e-14
0
LINE
5
124
100
AcDbEntity
8
BEND
100
AcDbLine
10
13.707168026350553
20
152.83933605270141
30
-9.408920123754796e-14
11
13.707168026350551
21
195.71433605270144
31
2.7385485996574788e-12
0
LINE
5
125
100
AcDbEntity
8
BEND
100
AcDbLine
10
220.62150407905227
20
195.71433605270144
30
2.7385485996574437e-12
11
220.62150407905227
21
152.83933605270141
31
-9.4089201237548326e-14
0
LINE
5
126
100
AcDbEntity
8
BEND
100
AcDbLine
10
220.62150407905219
20
134.60000000000011
30
-7.9454376819863832e-14
11
220.62150407905222
21
1.7763568394002505e-14
31
-1.7660590320040904e-13
0
LINE
5
127
100
AcDbEntity
8
BEND
100
AcDbLine
10
13.864336052701384
20
151.95716802635076
30
2.7144426845581522e-12
11
220.46433605270141
21
151.95716802635076
31
-1.0253585537014864e-13
0
LINE
5
128
100
AcDbEntity
8
BEND_EXTENT
100
AcDbLine
10
221.97867210540309
20
153.31433605270144
30
-6.5834007610038204e-14
11
221.97867210540309
21
195.71433605270144
31
1.6201411132450999e-13
0
LINE
5
129
100
AcDbEntity
8
BEND_EXTENT
100
AcDbLine
10
221.97867210540309
20
153.31433605270144
30
-6.5834007610038204e-14
11
221.97867210540309
21
152.36433605270142
31
-1.3482928810704769e-13
0
LINE
5
130
100
AcDbEntity
8
BEND_EXTENT
100
AcDbLine
10
12.349999999999756
20
152.36433605270142
30
-1.1706571971304521e-13
11
12.349999999999756
21
153.31433605270144
31
-4.8070439216035706e-14
0
LINE
5
131
100
AcDbEntity
8
BEND_EXTENT
100
AcDbLine
10
12.349999999999756
20
153.31433605270144
30
-4.8070439216035706e-14
11
12.34999999999979
21
195.71433605270144
31
1.97541248112515e-13
0
LINE
5
132
100
AcDbEntity
8
BEND_EXTENT
100
AcDbLine
10
221.6643360527014
20
150.60000000000008
30
-8.7290303121334117e-14
11
219.26433605270145
21
150.60000000000008
31
-8.7290303121334117e-14
0
LINE
5
133
100
AcDbEntity
8
BEND_EXTENT
100
AcDbLine
10
219.26433605270145
20
150.60000000000008
30
-8.7290303121334117e-14
11
15.064336052701393
21
150.60000000000008
31
-8.7290303121334117e-14
0
LINE
5
134
100
AcDbEntity
8
BEND_EXTENT
100
AcDbLine
10
15.064336052701393
20
150.60000000000008
30
-8.7290303121334117e-14
11
12.66433605270141
21
150.60000000000008
31
-8.7290303121334117e-14
0
LINE
5
135
100
AcDbEntity
8
BEND_EXTENT
100
AcDbLine
10
12.350000000000046
20
1.7763568394002505e-14
30
-2.3092638912203261e-13
11
12.350000000000058
21
134.60000000000008
31
-1.1409112493731185e-13
0
LINE
5
136
100
AcDbEntity
8
BEND_EXTENT
100
AcDbLine
10
221.97867210540281
20
3.5527136788005009e-14
30
-2.4868995751603512e-13
11
221.97867210540281
21
134.60000000000011
31
-1.3185469333131436e-13
0
LINE
5
137
100
AcDbEntity
8
BEND_EXTENT
100
AcDbLine
10
15.064336052701359
20
134.60000000000008
30
-9.8548002592559635e-14
11
15.064336052701366
21
7.1054273576010019e-14
31
-1.6944778913341472e-13
0
LINE
5
138
100
AcDbEntity
8
BEND_EXTENT
100
AcDbLine
10
219.26433605270145
20
7.1054273576010019e-14
30
-1.6944778913341472e-13
11
219.26433605270145
21
134.60000000000008
31
-9.8548002592559635e-14
0
LINE
5
139
100
AcDbEntity
8
BEND_EXTENT
100
AcDbLine
10
15.064336052701375
20
195.71433605270144
30
1.5313232712750872e-13
11
15.064336052701377
21
153.31433605270144
31
-9.2479360201041999e-14
0
LINE
5
140
100
AcDbEntity
8
BEND_EXTENT
100
AcDbLine
10
15.064336052701377
20
153.31433605270144
30
-9.2479360201041999e-14
11
219.26433605270145
21
153.31433605270144
31
-9.2479360201041961e-14
0
LINE
5
141
100
AcDbEntity
8
BEND_EXTENT
100
AcDbLine
10
219.26433605270145
20
153.31433605270144
30
-9.2479360201041961e-14
11
219.26433605270145
21
195.71433605270144
31
1.5313232712750872e-13
0
ENDSEC
0
SECTION
2
OBJECTS
0
DICTIONARY
5
C
100
AcDbDictionary
3
ACAD_GROUP
350
D
3
ACAD_MLINESTYLE
350
17
0
DICTIONARY
5
D
100
AcDbDictionary
0
DICTIONARY
5
1A
330
C
100
AcDbDictionary
0
DICTIONARY
5
17
100
AcDbDictionary
0
ENDSEC
0
EOF
