0
SECTION
2
HEADER
9
$INSUNITS
70
4
9
$ACADVER
1
AC1014
9
$HANDSEED
5
FFFF
0
ENDSEC
0
SECTION
2
TABLES
0
TABLE
2
VPORT
5
8
100
AcDbSymbolTable
0
ENDTAB
0
TABLE
2
LTYPE
5
5
100
AcDbSymbolTable
0
LTYPE
5
14
100
AcDbSymbolTableRecord
100
AcDbLinetypeTableRecord
2
BYBLOCK
70
0
0
LTYPE
5
15
100
AcDbSymbolTableRecord
100
AcDbLinetypeTableRecord
2
BYLAYER
70
0
0
ENDTAB
0
TABLE
2
LAYER
5
2
100
AcDbSymbolTable
70
2
0
LAYER
5
50
100
AcDbSymbolTableRecord
100
AcDbLayerTableRecord
2
0
70
0
6
CONTINUOUS
0
ENDTAB
0
TABLE
2
STYLE
5
3
100
AcDbSymbolTable
70
1
0
STYLE
5
11
100
AcDbSymbolTableRecord
100
AcDbTextStyleTableRecord
2
STANDARD
70
0
0
ENDTAB
0
TABLE
2
VIEW
5
6
100
AcDbSymbolTable
70
0
0
ENDTAB
0
TABLE
2
UCS
5
7
100
AcDbSymbolTable
70
0
0
ENDTAB
0
TABLE
2
APPID
5
9
100
AcDbSymbolTable
70
2
0
APPID
5
12
100
AcDbSymbolTableRecord
100
AcDbRegAppTableRecord
2
ACAD
70
0
0
ENDTAB
0
TABLE
2
DIMSTYLE
5
A
100
AcDbSymbolTable
70
1
0
ENDTAB
0
TABLE
2
BLOCK_RECORD
5
1
100
AcDbSymbolTable
70
1
0
BLOCK_RECORD
5
1F
100
AcDbSymbolTableRecord
100
AcDbBlockTableRecord
2
*MODEL_SPACE
0
BLOCK_RECORD
5
1B
100
AcDbSymbolTableRecord
100
AcDbBlockTableRecord
2
*PAPER_SPACE
0
ENDTAB
0
ENDSEC
0
SECTION
2
BLOCKS
0
BLOCK
5
20
100
AcDbEntity
100
AcDbBlockBegin
2
*MODEL_SPACE
0
ENDBLK
5
21
100
AcDbEntity
100
AcDbBlockEnd
0
BLOCK
5
1C
100
AcDbEntity
100
AcDbBlockBegin
2
*PAPER_SPACE
0
ENDBLK
5
1D
100
AcDbEntity
100
AcDbBlockEnd
0
ENDSEC
0
SECTION
2
ENTITIES
0
LWPOLYLINE
5
100
100
AcDbEntity
8
OUTER_PROFILES
100
AcDbPolyline
90
18
70
1
43
0.0
10
313.12867210540327
20
1.4999999999999247
42
-0.41421356237309354
10
311.62867210540327
20
-6.8278716014447127e-14
10
0
20
3.3306690738754696e-15
42
-0.41421356237309159
10
-1.5000000000000002
20
1.4999999999999858
10
-1.4999999999998792
20
151.74999999999994
42
-0.41421356237309459
10
1.0415809350236614e-13
20
153.24999999999994
10
49.550000000000125
20
153.24999999999991
10
52.264336052701665
20
152.29999999999993
10
49.864336052701645
20
155.01433605270154
10
49.864336052701681
20
204.56433605270149
42
-0.41421356237308637
10
51.364336052701695
20
206.06433605270149
10
260.26433605270165
20
206.06433605270149
42
-0.41421356237309503
10
261.76433605270165
20
204.56433605270146
10
261.76433605270165
20
155.01433605270148
10
259.36433605270167
20
152.2999999999999
10
262.07867210540326
20
153.24999999999986
10
311.62867210540327
20
153.24999999999986
42
-0.41421356237309853
10
313.12867210540327
20
151.74999999999986
0
LWPOLYLINE
5
101
100
AcDbEntity
8
INTERIOR_PROFILES
100
AcDbPolyline
90
8
70
1
43
0.0
10
119.81433605270142
20
74.499999999999844
42
-0.41421356237309503
10
120.31433605270141
20
74.999999999999829
10
201.31433605270121
20
74.999999999999801
42
-0.41421356237309503
10
201.81433605270144
20
74.499999999999588
10
201.81433605270144
20
49.499999999999332
42
-0.41421356237309503
10
201.31433605270189
20
48.999999999999808
10
120.31433605270141
20
48.999999999999829
42
-0.41421356237309503
10
119.81433605270141
20
49.499999999999829
0
LWPOLYLINE
5
102
100
AcDbEntity
8
INTERIOR_PROFILES
100
AcDbPolyline
90
8
70
1
43
0.0
10
236.9643360527017
20
139.14999999999981
10
199.66433605270166
20
139.14999999999986
42
0.41421356237309503
10
199.16433605270163
20
138.64999999999984
10
199.16433605270163
20
101.34999999999982
42
0.41421356237309503
10
199.66433605270166
20
100.84999999999982
10
236.96433605270164
20
100.84999999999981
42
0.41421356237309503
10
237.46433605270167
20
101.34999999999982
10
237.46433605270167
20
138.64999999999984
42
0.41421356237309503
0
LWPOLYLINE
5
103
100
AcDbEntity
8
INTERIOR_PROFILES
100
AcDbPolyline
90
8
70
1
43
0.0
10
74.164336052701643
20
138.64999999999986
42
-0.41421356237309503
10
74.664336052701614
20
139.14999999999986
10
92.964336052701668
20
139.14999999999986
42
-0.41421356237309503
10
93.464336052701668
20
138.64999999999984
10
93.464336052701668
20
101.34999999999984
42
-0.41421356237309503
10
92.964336052701668
20
100.84999999999982
10
74.664336052701614
20
100.84999999999982
42
-0.41421356237309503
10
74.164336052701614
20
101.34999999999984
0
CIRCLE
5
104
100
AcDbEntity
8
INTERIOR_PROFILES
100
AcDbCircle
10
-141.81433605270166
20
141.99999999999986
30
0
40
0.99999999999999645
210
0
220
0
230
-1
0
CIRCLE
5
105
100
AcDbEntity
8
INTERIOR_PROFILES
100
AcDbCircle
10
-208.81433605270163
20
97.999999999999815
30
0
40
0.99999999999997868
210
0
220
0
230
-1
0
LWPOLYLINE
5
106
100
AcDbEntity
8
INTERIOR_PROFILES
100
AcDbPolyline
90
16
70
1
43
0.0
10
188.96433605270164
20
139.14999999999986
42
-0.41421356237309503
10
189.46433605270164
20
138.64999999999984
10
189.46433605270164
20
120.49999999999983
42
-0.41421356237309503
10
188.96433605270164
20
119.99999999999983
10
170.96433605270164
20
119.99999999999983
42
0.41421356237309503
10
170.46433605270167
20
119.49999999999983
10
170.46433605270167
20
101.34999999999982
42
-0.41421356237309503
10
169.96433605270167
20
100.84999999999982
10
151.66433605270163
20
100.84999999999982
42
-0.41421356237309503
10
151.16433605270163
20
101.34999999999984
10
151.16433605270163
20
119.49999999999983
42
0.41421356237309503
10
150.66433605270166
20
119.99999999999983
10
132.66433605270163
20
119.99999999999983
42
-0.41421356237309503
10
132.16433605270166
20
120.49999999999983
10
132.16433605270166
20
138.64999999999984
42
-0.41421356237309503
10
132.66433605270166
20
139.14999999999986
0
CIRCLE
5
107
100
AcDbEntity
8
INTERIOR_PROFILES
100
AcDbCircle
10
-83.814336052701677
20
141.99999999999986
30
0
40
0.99999999999999645
210
0
220
0
230
-1
0
CIRCLE
5
108
100
AcDbEntity
8
INTERIOR_PROFILES
100
AcDbCircle
10
-83.814336052701663
20
97.999999999999844
30
0
40
0.99999999999999645
210
0
220
0
230
-1
0
CIRCLE
5
109
100
AcDbEntity
8
INTERIOR_PROFILES
100
AcDbCircle
10
-227.81433605270166
20
141.99999999999983
30
0
40
1.0000000000000142
210
0
220
0
230
-1
0
CIRCLE
5
110
100
AcDbEntity
8
INTERIOR_PROFILES
100
AcDbCircle
10
-179.81433605270166
20
141.99999999999983
30
0
40
1.0000000000000142
210
0
220
0
230
-1
0
CIRCLE
5
111
100
AcDbEntity
8
INTERIOR_PROFILES
100
AcDbCircle
10
-112.81433605270166
20
97.999999999999844
30
0
40
0.99999999999999645
210
0
220
0
230
-1
0
LWPOLYLINE
5
112
100
AcDbEntity
8
INTERIOR_PROFILES
100
AcDbPolyline
90
8
70
1
43
0.0
10
122.46433605270167
20
101.34999999999985
42
-0.41421356237309503
10
121.96433605270165
20
100.84999999999987
10
103.66433605270166
20
100.84999999999987
42
-0.41421356237309503
10
103.16433605270166
20
101.34999999999985
10
103.16433605270169
20
138.64999999999984
42
-0.41421356237309503
10
103.66433605270169
20
139.14999999999986
10
121.96433605270167
20
139.14999999999986
42
-0.41421356237309503
10
122.46433605270167
20
138.64999999999986
0
CIRCLE
5
113
100
AcDbEntity
8
INTERIOR_PROFILES
100
AcDbCircle
10
-160.81433605270163
20
141.99999999999983
30
0
40
1.0000000000000142
210
0
220
0
230
-1
0
CIRCLE
5
114
100
AcDbEntity
8
INTERIOR_PROFILES
100
AcDbCircle
10
-227.81433605270166
20
97.999999999999815
30
0
40
1.0000000000000142
210
0
220
0
230
-1
0
CIRCLE
5
115
100
AcDbEntity
8
INTERIOR_PROFILES
100
AcDbCircle
10
-227.81433605270163
20
61.999999999999815
30
0
40
3.75
210
0
220
0
230
-1
0
CIRCLE
5
116
100
AcDbEntity
8
INTERIOR_PROFILES
100
AcDbCircle
10
-7.9500000000000171
20
24.999999999999936
30
0
40
2.2999999999999954
210
0
220
0
230
-1
0
CIRCLE
5
117
100
AcDbEntity
8
INTERIOR_PROFILES
100
AcDbCircle
10
-28.50000000000005
20
9.4500000000000028
30
0
40
2.2999999999999954
210
0
220
0
230
-1
0
CIRCLE
5
118
100
AcDbEntity
8
INTERIOR_PROFILES
100
AcDbCircle
10
-7.9500000000000881
20
146.89999999999995
30
0
40
2.2999999999999865
210
0
220
0
230
-1
0
LWPOLYLINE
5
119
100
AcDbEntity
8
INTERIOR_PROFILES
100
AcDbPolyline
90
8
70
1
43
0.0
10
104.56433605270165
20
171.41433605270097
42
-0.41421356237309503
10
105.06433605270166
20
170.91433605270097
10
105.06433605270168
20
165.91433605270097
42
-0.41421356237309503
10
104.56433605270166
20
165.41433605270097
10
92.064336052701663
20
165.414336052701
42
-0.41421356237309503
10
91.564336052701677
20
165.91433605270097
10
91.564336052701677
20
170.91433605270097
42
-0.41421356237309503
10
92.064336052701691
20
171.414336052701
0
LWPOLYLINE
5
120
100
AcDbEntity
8
INTERIOR_PROFILES
100
AcDbPolyline
90
8
70
1
43
0.0
10
232.41433605270171
20
191.8393360527009
10
232.41433605270169
20
169.23933605270093
42
0.41421356237309503
10
232.91433605270169
20
168.73933605270093
10
238.71433605270167
20
168.73933605270093
42
0.41421356237309503
10
239.21433605270167
20
169.23933605270093
10
239.21433605270167
20
191.83933605270099
42
0.41421356237307422
10
238.71433605270164
20
192.33933605270093
10
232.91433605270169
20
192.3393360527009
42
0.41421356237309503
0
LWPOLYLINE
5
121
100
AcDbEntity
8
INTERIOR_PROFILES
100
AcDbPolyline
90
8
70
1
43
0.0
10
134.56433605270166
20
165.914336052701
42
-0.41421356237309503
10
134.06433605270166
20
165.414336052701
10
121.56433605270168
20
165.41433605270103
42
-0.41421356237309503
10
121.06433605270169
20
165.914336052701
10
121.06433605270169
20
170.914336052701
42
-0.41421356237311585
10
121.56433605270173
20
171.414336052701
10
134.06433605270166
20
171.414336052701
42
-0.41421356237309503
10
134.56433605270169
20
170.914336052701
0
CIRCLE
5
122
100
AcDbEntity
8
INTERIOR_PROFILES
100
AcDbCircle
10
-283.12867210540321
20
9.4499999999999318
30
0
40
2.2999999999999954
210
0
220
0
230
-1
0
CIRCLE
5
123
100
AcDbEntity
8
INTERIOR_PROFILES
100
AcDbCircle
10
-194.31433605270166
20
180.53933605270095
30
0
40
3.5999999999999943
210
0
220
0
230
-1
0
CIRCLE
5
124
100
AcDbEntity
8
INTERIOR_PROFILES
100
AcDbCircle
10
-303.67867210540328
20
24.999999999999858
30
0
40
2.2999999999999954
210
0
220
0
230
-1
0
CIRCLE
5
125
100
AcDbEntity
8
INTERIOR_PROFILES
100
AcDbCircle
10
-112.81433605270168
20
141.99999999999986
30
0
40
0.99999999999999645
210
0
220
0
230
-1
0
CIRCLE
5
126
100
AcDbEntity
8
INTERIOR_PROFILES
100
AcDbCircle
10
-303.67867210540328
20
146.89999999999986
30
0
40
2.3000000000000043
210
0
220
0
230
-1
0
CIRCLE
5
127
100
AcDbEntity
8
INTERIOR_PROFILES
100
AcDbCircle
10
-244.81433605270166
20
139.9999999999998
30
0
40
2.1099999999999852
210
0
220
0
230
-1
0
CIRCLE
5
128
100
AcDbEntity
8
INTERIOR_PROFILES
100
AcDbCircle
10
-160.81433605270163
20
97.999999999999829
30
0
40
1.0000000000000142
210
0
220
0
230
-1
0
CIRCLE
5
129
100
AcDbEntity
8
INTERIOR_PROFILES
100
AcDbCircle
10
-66.814336052701648
20
47.999999999999858
30
0
40
2.110000000000003
210
0
220
0
230
-1
0
CIRCLE
5
130
100
AcDbEntity
8
INTERIOR_PROFILES
100
AcDbCircle
10
-66.814336052701648
20
139.99999999999986
30
0
40
2.110000000000003
210
0
220
0
230
-1
0
CIRCLE
5
131
100
AcDbEntity
8
INTERIOR_PROFILES
100
AcDbCircle
10
-208.81433605270166
20
141.99999999999983
30
0
40
1.0000000000000142
210
0
220
0
230
-1
0
CIRCLE
5
132
100
AcDbEntity
8
INTERIOR_PROFILES
100
AcDbCircle
10
-244.81433605270166
20
47.999999999999815
30
0
40
2.1099999999999852
210
0
220
0
230
-1
0
LINE
5
133
100
AcDbEntity
8
BEND
100
AcDbLine
10
260.72150407905247
20
152.77499999999986
30
2.342809727390008e-12
11
260.72150407905241
21
-8.8817841970012523e-14
31
1.0912796552845121e-11
0
LINE
5
134
100
AcDbEntity
8
BEND
100
AcDbLine
10
50.907168026350824
20
-3.5527136788005009e-14
30
1.1682647505209068e-11
11
50.90716802635086
21
152.77499999999998
31
3.5965072953946017e-13
0
LINE
5
135
100
AcDbEntity
8
BEND
100
AcDbLine
10
51.064336052701691
20
153.65716802635075
30
3.7102769014111511e-13
11
260.56433605270166
21
153.65716802635069
31
2.3418862901844908e-12
0
LINE
5
136
100
AcDbEntity
8
BEND_EXTENT
100
AcDbLine
10
49.550000000000018
20
-1.7763568394002505e-14
30
3.595572227250033e-13
11
49.550000000000125
21
152.30000000000001
31
3.9508435951300957e-13
0
LINE
5
137
100
AcDbEntity
8
BEND_EXTENT
100
AcDbLine
10
49.550000000000125
20
152.30000000000001
30
3.9508435951300957e-13
11
49.550000000000125
21
153.24999999999991
31
3.9508435951300957e-13
0
LINE
5
138
100
AcDbEntity
8
BEND_EXTENT
100
AcDbLine
10
49.864336052701645
20
155.01433605270154
30
3.5363253596366174e-13
11
52.264336052701665
21
155.01433605270151
31
3.7621039104769125e-13
0
LINE
5
139
100
AcDbEntity
8
BEND_EXTENT
100
AcDbLine
10
52.264336052701665
20
155.01433605270151
30
3.7621039104769125e-13
11
259.36433605270167
21
155.01433605270148
31
2.3244911360070377e-12
0
LINE
5
140
100
AcDbEntity
8
BEND_EXTENT
100
AcDbLine
10
259.36433605270167
20
155.01433605270148
30
2.3244911360070377e-12
11
261.76433605270165
21
155.01433605270148
31
2.3470689910910667e-12
0
LINE
5
141
100
AcDbEntity
8
BEND_EXTENT
100
AcDbLine
10
262.07867210540326
20
153.24999999999986
30
2.3411443043297254e-12
11
262.07867210540326
21
152.29999999999995
31
2.3589078727237279e-12
0
LINE
5
142
100
AcDbEntity
8
BEND_EXTENT
100
AcDbLine
10
262.07867210540326
20
-7.1054273576010019e-14
30
2.3056171675417204e-12
11
262.07867210540326
21
152.29999999999995
31
2.3589078727237279e-12
0
LINE
5
143
100
AcDbEntity
8
BEND_EXTENT
100
AcDbLine
10
259.36433605270167
20
-1.2434497875801753e-13
30
2.333372920204039e-12
11
259.36433605270167
21
152.2999999999999
31
2.333372920204039e-12
0
LINE
5
144
100
AcDbEntity
8
BEND_EXTENT
100
AcDbLine
10
259.36433605270167
20
152.2999999999999
30
2.333372920204039e-12
11
52.264336052701665
21
152.29999999999993
31
3.8509217524469251e-13
0
LINE
5
145
100
AcDbEntity
8
BEND_EXTENT
100
AcDbLine
10
52.264336052701665
20
152.29999999999993
30
3.8509217524469251e-13
11
52.264336052701559
21
-7.1054273576010019e-14
31
3.8509217524469124e-13
0
ENDSEC
0
SECTION
2
OBJECTS
0
DICTIONARY
5
C
100
AcDbDictionary
3
ACAD_GROUP
350
D
3
ACAD_MLINESTYLE
350
17
0
DICTIONARY
5
D
100
AcDbDictionary
0
DICTIONARY
5
1A
330
C
100
AcDbDictionary
0
DICTIONARY
5
17
100
AcDbDictionary
0
ENDSEC
0
EOF
