0
SECTION
2
HEADER
9
$INSUNITS
70
4
9
$ACADVER
1
AC1014
9
$HANDSEED
5
FFFF
0
ENDSEC
0
SECTION
2
TABLES
0
TABLE
2
VPORT
5
8
100
AcDbSymbolTable
0
ENDTAB
0
TABLE
2
LTYPE
5
5
100
AcDbSymbolTable
0
LTYPE
5
14
100
AcDbSymbolTableRecord
100
AcDbLinetypeTableRecord
2
BYBLOCK
70
0
0
LTYPE
5
15
100
AcDbSymbolTableRecord
100
AcDbLinetypeTableRecord
2
BYLAYER
70
0
0
ENDTAB
0
TABLE
2
LAYER
5
2
100
AcDbSymbolTable
70
2
0
LAYER
5
50
100
AcDbSymbolTableRecord
100
AcDbLayerTableRecord
2
0
70
0
6
CONTINUOUS
0
ENDTAB
0
TABLE
2
STYLE
5
3
100
AcDbSymbolTable
70
1
0
STYLE
5
11
100
AcDbSymbolTableRecord
100
AcDbTextStyleTableRecord
2
STANDARD
70
0
0
ENDTAB
0
TABLE
2
VIEW
5
6
100
AcDbSymbolTable
70
0
0
ENDTAB
0
TABLE
2
UCS
5
7
100
AcDbSymbolTable
70
0
0
ENDTAB
0
TABLE
2
APPID
5
9
100
AcDbSymbolTable
70
2
0
APPID
5
12
100
AcDbSymbolTableRecord
100
AcDbRegAppTableRecord
2
ACAD
70
0
0
ENDTAB
0
TABLE
2
DIMSTYLE
5
A
100
AcDbSymbolTable
70
1
0
ENDTAB
0
TABLE
2
BLOCK_RECORD
5
1
100
AcDbSymbolTable
70
1
0
BLOCK_RECORD
5
1F
100
AcDbSymbolTableRecord
100
AcDbBlockTableRecord
2
*MODEL_SPACE
0
BLOCK_RECORD
5
1B
100
AcDbSymbolTableRecord
100
AcDbBlockTableRecord
2
*PAPER_SPACE
0
ENDTAB
0
ENDSEC
0
SECTION
2
BLOCKS
0
BLOCK
5
20
100
AcDbEntity
100
AcDbBlockBegin
2
*MODEL_SPACE
0
ENDBLK
5
21
100
AcDbEntity
100
AcDbBlockEnd
0
BLOCK
5
1C
100
AcDbEntity
100
AcDbBlockBegin
2
*PAPER_SPACE
0
ENDBLK
5
1D
100
AcDbEntity
100
AcDbBlockEnd
0
ENDSEC
0
SECTION
2
ENTITIES
0
LWPOLYLINE
5
100
100
AcDbEntity
8
OUTER_PROFILES
100
AcDbPolyline
90
18
70
1
43
0.0
10
-1.4999999999998939
20
152
42
-0.41421356237309548
10
1.088210302057918e-13
20
153.5
10
49.55000000000009
20
153.49999999999997
10
52.26433605270163
20
152.54999999999998
10
49.86433605270161
20
155.26433605270157
10
49.864336052701702
20
204.81433605270155
42
-0.41421356237308637
10
51.36433605270166
20
206.31433605270155
10
260.26433605270165
20
206.31433605270155
42
-0.41421356237309503
10
261.76433605270165
20
204.81433605270152
10
261.76433605270165
20
155.26433605270154
10
259.36433605270162
20
152.54999999999995
10
262.0786721054032
20
153.49999999999991
10
311.62867210540321
20
153.49999999999991
42
-0.41421356237309853
10
313.12867210540321
20
151.99999999999991
10
313.12867210540327
20
1.4999999999999147
42
-0.41421356237309159
10
311.62867210540321
20
-6.8278716014447127e-14
10
0
20
-1.4710455076283324e-14
42
-0.41421356237309515
10
-1.5000000000000004
20
1.4999999999999862
0
LWPOLYLINE
5
101
100
AcDbEntity
8
INTERIOR_PROFILES
100
AcDbPolyline
90
8
70
1
43
0.0
10
134.06433605270163
20
171.66433605270106
10
121.56433605270169
20
171.66433605270106
42
0.41421356237311585
10
121.06433605270166
20
171.16433605270106
10
121.06433605270168
20
166.16433605270103
42
0.41421356237307422
10
121.56433605270165
20
165.66433605270109
10
134.06433605270163
20
165.66433605270106
42
0.41421356237309503
10
134.56433605270163
20
166.16433605270106
10
134.56433605270163
20
171.16433605270106
42
0.41421356237309503
0
LWPOLYLINE
5
102
100
AcDbEntity
8
INTERIOR_PROFILES
100
AcDbPolyline
90
8
70
1
43
0.0
10
238.71433605270158
20
192.58933605270101
10
232.91433605270163
20
192.58933605270096
42
0.41421356237309503
10
232.41433605270169
20
192.08933605270096
10
232.41433605270163
20
169.48933605270099
42
0.41421356237309503
10
232.91433605270163
20
168.98933605270099
10
238.71433605270164
20
168.98933605270099
42
0.41421356237309503
10
239.21433605270164
20
169.48933605270099
10
239.21433605270167
20
192.08933605270104
42
0.41421356237307422
0
LWPOLYLINE
5
103
100
AcDbEntity
8
INTERIOR_PROFILES
100
AcDbPolyline
90
8
70
1
43
0.0
10
92.064336052701634
20
165.66433605270106
10
104.56433605270163
20
165.66433605270103
42
0.41421356237309503
10
105.06433605270163
20
166.16433605270103
10
105.06433605270162
20
171.16433605270103
42
0.41421356237309503
10
104.56433605270162
20
171.66433605270103
10
92.064336052701648
20
171.66433605270103
42
0.41421356237309503
10
91.564336052701648
20
171.16433605270103
10
91.564336052701663
20
166.16433605270103
42
0.41421356237309503
0
CIRCLE
5
104
100
AcDbEntity
8
INTERIOR_PROFILES
100
AcDbCircle
10
-283.12867210540321
20
9.6999999999999886
30
0
40
2.2999999999999954
210
0
220
0
230
-1
0
CIRCLE
5
105
100
AcDbEntity
8
INTERIOR_PROFILES
100
AcDbCircle
10
-194.31433605270166
20
180.789336052701
30
0
40
3.7000000000000099
210
0
220
0
230
-1
0
CIRCLE
5
106
100
AcDbEntity
8
INTERIOR_PROFILES
100
AcDbCircle
10
-303.67867210540328
20
25.249999999999915
30
0
40
2.2999999999999954
210
0
220
0
230
-1
0
CIRCLE
5
107
100
AcDbEntity
8
INTERIOR_PROFILES
100
AcDbCircle
10
-303.67867210540322
20
147.14999999999992
30
0
40
2.3000000000000043
210
0
220
0
230
-1
0
LWPOLYLINE
5
108
100
AcDbEntity
8
INTERIOR_PROFILES
100
AcDbPolyline
90
8
70
1
43
0.0
10
74.1643360527016
20
138.89999999999992
10
74.164336052701572
20
101.59999999999989
42
0.41421356237309503
10
74.664336052701572
20
101.09999999999988
10
92.96433605270164
20
101.09999999999988
42
0.41421356237309503
10
93.46433605270164
20
101.59999999999989
10
93.46433605270164
20
138.89999999999989
42
0.41421356237309503
10
92.96433605270164
20
139.39999999999992
10
74.664336052701572
20
139.39999999999992
42
0.41421356237309503
0
CIRCLE
5
109
100
AcDbEntity
8
INTERIOR_PROFILES
100
AcDbCircle
10
-160.81433605270163
20
98.249999999999886
30
0
40
1.0999999999999943
210
0
220
0
230
-1
0
LWPOLYLINE
5
110
100
AcDbEntity
8
INTERIOR_PROFILES
100
AcDbPolyline
90
8
70
1
43
0.0
10
199.16433605270163
20
138.89999999999989
42
-0.41421356237309503
10
199.66433605270163
20
139.39999999999989
10
236.96433605270164
20
139.39999999999986
42
-0.41421356237309503
10
237.46433605270164
20
138.89999999999989
10
237.46433605270164
20
101.59999999999988
42
-0.41421356237309503
10
236.96433605270161
20
101.09999999999987
10
199.66433605270163
20
101.09999999999988
42
-0.41421356237309503
10
199.1643360527016
20
101.59999999999988
0
LWPOLYLINE
5
111
100
AcDbEntity
8
INTERIOR_PROFILES
100
AcDbPolyline
90
8
70
1
43
0.0
10
119.81433605270139
20
74.749999999999901
10
119.81433605270138
20
49.749999999999886
42
0.41421356237309503
10
120.31433605270138
20
49.249999999999886
10
201.31433605270186
20
49.249999999999886
42
0.41421356237309503
10
201.81433605270138
20
49.749999999999389
10
201.81433605270141
20
74.749999999999645
42
0.41421356237309503
10
201.31433605270118
20
75.249999999999858
10
120.31433605270138
20
75.249999999999886
42
0.41421356237309503
0
CIRCLE
5
112
100
AcDbEntity
8
INTERIOR_PROFILES
100
AcDbCircle
10
-208.81433605270163
20
142.24999999999989
30
0
40
1.0999999999999943
210
0
220
0
230
-1
0
CIRCLE
5
113
100
AcDbEntity
8
INTERIOR_PROFILES
100
AcDbCircle
10
-244.81433605270161
20
48.249999999999872
30
0
40
2.1099999999999852
210
0
220
0
230
-1
0
CIRCLE
5
114
100
AcDbEntity
8
INTERIOR_PROFILES
100
AcDbCircle
10
-66.814336052701606
20
48.249999999999915
30
0
40
2.110000000000003
210
0
220
0
230
-1
0
CIRCLE
5
115
100
AcDbEntity
8
INTERIOR_PROFILES
100
AcDbCircle
10
-112.81433605270165
20
142.24999999999991
30
0
40
1.1000000000000121
210
0
220
0
230
-1
0
CIRCLE
5
116
100
AcDbEntity
8
INTERIOR_PROFILES
100
AcDbCircle
10
-141.81433605270163
20
142.24999999999991
30
0
40
1.0999999999999943
210
0
220
0
230
-1
0
CIRCLE
5
117
100
AcDbEntity
8
INTERIOR_PROFILES
100
AcDbCircle
10
-66.814336052701606
20
140.24999999999991
30
0
40
2.110000000000003
210
0
220
0
230
-1
0
CIRCLE
5
118
100
AcDbEntity
8
INTERIOR_PROFILES
100
AcDbCircle
10
-244.81433605270161
20
140.24999999999986
30
0
40
2.1099999999999852
210
0
220
0
230
-1
0
LWPOLYLINE
5
119
100
AcDbEntity
8
INTERIOR_PROFILES
100
AcDbPolyline
90
16
70
1
43
0.0
10
151.16433605270163
20
119.74999999999989
10
151.1643360527016
20
101.59999999999989
42
0.41421356237309503
10
151.6643360527016
20
101.09999999999988
10
169.96433605270164
20
101.09999999999987
42
0.41421356237309503
10
170.46433605270164
20
101.59999999999988
10
170.46433605270158
20
119.74999999999989
42
-0.41421356237309503
10
170.96433605270161
20
120.24999999999989
10
188.96433605270161
20
120.24999999999989
42
0.41421356237309503
10
189.46433605270161
20
120.74999999999989
10
189.46433605270161
20
138.89999999999989
42
0.41421356237309503
10
188.96433605270161
20
139.39999999999992
10
132.66433605270163
20
139.39999999999992
42
0.41421356237309503
10
132.16433605270163
20
138.89999999999989
10
132.1643360527016
20
120.74999999999989
42
0.41421356237309503
10
132.6643360527016
20
120.24999999999989
10
150.6643360527016
20
120.2499999999999
42
-0.41421356237309503
0
CIRCLE
5
120
100
AcDbEntity
8
INTERIOR_PROFILES
100
AcDbCircle
10
-179.81433605270161
20
142.24999999999989
30
0
40
1.0999999999999943
210
0
220
0
230
-1
0
LWPOLYLINE
5
121
100
AcDbEntity
8
INTERIOR_PROFILES
100
AcDbPolyline
90
8
70
1
43
0.0
10
103.66433605270161
20
101.09999999999991
10
121.96433605270161
20
101.09999999999991
42
0.41421356237309503
10
122.46433605270163
20
101.59999999999991
10
122.46433605270163
20
138.89999999999992
42
0.41421356237309503
10
121.96433605270164
20
139.39999999999992
10
103.66433605270166
20
139.39999999999992
42
0.41421356237309503
10
103.16433605270164
20
138.89999999999989
10
103.16433605270161
20
101.59999999999991
42
0.41421356237309503
0
CIRCLE
5
122
100
AcDbEntity
8
INTERIOR_PROFILES
100
AcDbCircle
10
-227.81433605270163
20
142.24999999999989
30
0
40
1.0999999999999943
210
0
220
0
230
-1
0
CIRCLE
5
123
100
AcDbEntity
8
INTERIOR_PROFILES
100
AcDbCircle
10
-227.81433605270161
20
62.249999999999872
30
0
40
3.8499999999999801
210
0
220
0
230
-1
0
CIRCLE
5
124
100
AcDbEntity
8
INTERIOR_PROFILES
100
AcDbCircle
10
-83.814336052701634
20
142.24999999999991
30
0
40
1.0999999999999943
210
0
220
0
230
-1
0
CIRCLE
5
125
100
AcDbEntity
8
INTERIOR_PROFILES
100
AcDbCircle
10
-208.81433605270161
20
98.249999999999872
30
0
40
1.0999999999999943
210
0
220
0
230
-1
0
CIRCLE
5
126
100
AcDbEntity
8
INTERIOR_PROFILES
100
AcDbCircle
10
-160.81433605270161
20
142.24999999999989
30
0
40
1.0999999999999943
210
0
220
0
230
-1
0
CIRCLE
5
127
100
AcDbEntity
8
INTERIOR_PROFILES
100
AcDbCircle
10
-227.81433605270163
20
98.249999999999872
30
0
40
1.0999999999999943
210
0
220
0
230
-1
0
CIRCLE
5
128
100
AcDbEntity
8
INTERIOR_PROFILES
100
AcDbCircle
10
-83.81433605270162
20
98.249999999999901
30
0
40
1.1000000000000121
210
0
220
0
230
-1
0
CIRCLE
5
129
100
AcDbEntity
8
INTERIOR_PROFILES
100
AcDbCircle
10
-7.9500000000000526
20
147.15000000000001
30
0
40
2.2999999999999865
210
0
220
0
230
-1
0
CIRCLE
5
130
100
AcDbEntity
8
INTERIOR_PROFILES
100
AcDbCircle
10
-7.9499999999999815
20
25.249999999999993
30
0
40
2.2999999999999954
210
0
220
0
230
-1
0
CIRCLE
5
131
100
AcDbEntity
8
INTERIOR_PROFILES
100
AcDbCircle
10
-28.500000000000014
20
9.7000000000000597
30
0
40
2.2999999999999954
210
0
220
0
230
-1
0
CIRCLE
5
132
100
AcDbEntity
8
INTERIOR_PROFILES
100
AcDbCircle
10
-112.81433605270163
20
98.249999999999901
30
0
40
1.0999999999999943
210
0
220
0
230
-1
0
LINE
5
133
100
AcDbEntity
8
BEND
100
AcDbLine
10
260.72150407905247
20
153.02499999999995
30
4.2265167166509876e-12
11
260.72150407905241
21
-8.8817841970012523e-14
31
1.2810527411890685e-11
0
LINE
5
134
100
AcDbEntity
8
BEND
100
AcDbLine
10
50.907168026350789
20
-3.5527136788005009e-14
30
1.1869463393302807e-11
11
50.907168026350824
21
153.02500000000003
31
5.277680587205851e-13
0
LINE
5
135
100
AcDbEntity
8
BEND
100
AcDbLine
10
51.064336052701655
20
153.9071680263508
30
5.3987555050356788e-13
11
260.56433605270161
21
153.90716802635075
31
4.2237530519434958e-12
0
LINE
5
136
100
AcDbEntity
8
BEND_EXTENT
100
AcDbLine
10
49.550000000000018
20
-1.7763568394002505e-14
30
5.1602280966815249e-13
11
49.55000000000009
21
152.55000000000007
31
5.8707708324416402e-13
0
LINE
5
137
100
AcDbEntity
8
BEND_EXTENT
100
AcDbLine
10
49.55000000000009
20
152.55000000000007
30
5.8707708324416402e-13
11
49.55000000000009
21
153.49999999999997
31
5.5154994645615901e-13
0
LINE
5
138
100
AcDbEntity
8
BEND_EXTENT
100
AcDbLine
10
49.86433605270161
20
155.26433605270157
30
5.126683548861339e-13
11
52.26433605270163
21
155.26433605270157
31
5.5487029285012363e-13
0
LINE
5
139
100
AcDbEntity
8
BEND_EXTENT
100
AcDbLine
10
52.26433605270163
20
155.26433605270157
30
5.5487029285012363e-13
11
259.36433605270162
21
155.26433605270154
31
4.1965458563260628e-12
0
LINE
5
140
100
AcDbEntity
8
BEND_EXTENT
100
AcDbLine
10
259.36433605270162
20
155.26433605270154
30
4.1965458563260628e-12
11
261.76433605270165
21
155.26433605270154
31
4.238747794290052e-12
0
LINE
5
141
100
AcDbEntity
8
BEND_EXTENT
100
AcDbLine
10
262.0786721054032
20
153.49999999999991
30
4.2531569079020352e-12
11
262.0786721054032
21
152.55000000000001
31
4.2886840446900402e-12
0
LINE
5
142
100
AcDbEntity
8
BEND_EXTENT
100
AcDbLine
10
262.0786721054032
20
-7.1054273576010019e-14
30
4.2176297711140302e-12
11
262.0786721054032
21
152.55000000000001
31
4.2886840446900402e-12
0
LINE
5
143
100
AcDbEntity
8
BEND_EXTENT
100
AcDbLine
10
259.36433605270162
20
-5.3290705182007514e-14
30
4.2054276405230641e-12
11
259.36433605270162
21
152.54999999999995
31
4.2054276405230641e-12
0
LINE
5
144
100
AcDbEntity
8
BEND_EXTENT
100
AcDbLine
10
259.36433605270162
20
152.54999999999995
30
4.2054276405230641e-12
11
52.26433605270163
21
152.54999999999998
31
5.6375207704712488e-13
0
LINE
5
145
100
AcDbEntity
8
BEND_EXTENT
100
AcDbLine
10
52.26433605270163
20
152.54999999999998
30
5.6375207704712488e-13
11
52.264336052701523
21
0
31
5.6375207704712336e-13
0
ENDSEC
0
SECTION
2
OBJECTS
0
DICTIONARY
5
C
100
AcDbDictionary
3
ACAD_GROUP
350
D
3
ACAD_MLINESTYLE
350
17
0
DICTIONARY
5
D
100
AcDbDictionary
0
DICTIONARY
5
1A
330
C
100
AcDbDictionary
0
DICTIONARY
5
17
100
AcDbDictionary
0
ENDSEC
0
EOF
