<?xml version="1.0" encoding="UTF-8" standalone="no"?>
<svg
   viewBox="0 0 1056 816"
   width="11in"
   height="8.5in"
   version="1.1"
   id="svg2980"
   sodipodi:docname="meter-probe-top-rear.svg"
   inkscape:version="1.1.2 (0a00cf5339, 2022-02-04)"
   xmlns:inkscape="http://www.inkscape.org/namespaces/inkscape"
   xmlns:sodipodi="http://sodipodi.sourceforge.net/DTD/sodipodi-0.dtd"
   xmlns="http://www.w3.org/2000/svg"
   xmlns:svg="http://www.w3.org/2000/svg">
  <sodipodi:namedview
     id="namedview2982"
     pagecolor="#ffffff"
     bordercolor="#666666"
     borderopacity="1.0"
     inkscape:pageshadow="2"
     inkscape:pageopacity="0.0"
     inkscape:pagecheckerboard="0"
     showgrid="false"
     units="in"
     inkscape:zoom="1.2810466"
     inkscape:cx="568.28533"
     inkscape:cy="257.60187"
     inkscape:window-width="3072"
     inkscape:window-height="1583"
     inkscape:window-x="0"
     inkscape:window-y="32"
     inkscape:window-maximized="1"
     inkscape:current-layer="g2978"
     inkscape:document-units="in" />
  <desc
     id="desc2958">meter-probe-top-rear.dxf - scale = 1.0, origin = (0.0, 0.0), method = manual</desc>
  <defs
     id="defs2972">
    <marker
       id="DistanceX"
       orient="auto"
       refX="0"
       refY="0"
       style="overflow:visible">
      <path
         d="M 3,-3 -3,3 M 0,-5 V 5"
         style="stroke:#000000;stroke-width:0.5"
         id="path2960" />
    </marker>
    <pattern
       id="Hatch"
       patternUnits="userSpaceOnUse"
       width="8"
       height="8"
       x="0"
       y="0">
      <path
         d="M8 4 l-4,4"
         stroke="#000000"
         stroke-width="0.25"
         linecap="square"
         id="path2963" />
      <path
         d="M6 2 l-4,4"
         stroke="#000000"
         stroke-width="0.25"
         linecap="square"
         id="path2965" />
      <path
         d="M4 0 l-4,4"
         stroke="#000000"
         stroke-width="0.25"
         linecap="square"
         id="path2967" />
    </pattern>
    <symbol
       id="*MODEL_SPACE" />
    <symbol
       id="*PAPER_SPACE" />
  </defs>
  <g
     inkscape:groupmode="layer"
     inkscape:label="0"
     id="g2978">
    <g
       id="g34882">
      <rect
         style="fill:#2d2926;fill-opacity:1;fill-rule:evenodd;stroke:#000000;stroke-width:0.652532;stroke-linecap:butt;stroke-linejoin:miter;stroke-miterlimit:4;stroke-dasharray:none;stroke-opacity:1"
         id="rect4781"
         width="9.3474684"
         height="9.3474684"
         x="445.47754"
         y="488.09207"
         ry="2.7696204" />
      <text
         xml:space="preserve"
         style="font-size:13.3333px;line-height:125%;font-family:sans-serif;-inkscape-font-specification:sans-serif;letter-spacing:0px;word-spacing:0px;fill:none;stroke:#000000;stroke-width:1px;stroke-linecap:butt;stroke-linejoin:miter;stroke-opacity:1"
         x="460.62363"
         y="498.396"
         id="text10271"><tspan
           sodipodi:role="line"
           id="tspan10269"
           x="460.62363"
           y="498.396"
           style="font-size:13.3333px;fill:#000000;fill-opacity:1;stroke:none">PANTONE Black C</tspan></text>
      <rect
         style="fill:#d9d9d6;fill-opacity:1;fill-rule:evenodd;stroke:#000000;stroke-width:0.652532;stroke-linecap:butt;stroke-linejoin:miter;stroke-miterlimit:4;stroke-dasharray:none;stroke-opacity:1"
         id="rect4781-5"
         width="9.3474684"
         height="9.3474684"
         x="445.47754"
         y="507.05896"
         ry="2.7696204" />
      <text
         xml:space="preserve"
         style="font-size:13.3333px;line-height:125%;font-family:sans-serif;-inkscape-font-specification:sans-serif;letter-spacing:0px;word-spacing:0px;fill:none;stroke:#000000;stroke-width:1px;stroke-linecap:butt;stroke-linejoin:miter;stroke-opacity:1"
         x="460.62363"
         y="517.36292"
         id="text10271-3"><tspan
           sodipodi:role="line"
           id="tspan10269-0"
           x="460.62363"
           y="517.36292"
           style="font-size:13.3333px;fill:#000000;fill-opacity:1;stroke:none">PANTONE Cool Gray 1C</tspan></text>
      <rect
         style="fill:none;fill-opacity:1;fill-rule:evenodd;stroke:#ff0000;stroke-width:0.652532;stroke-linecap:butt;stroke-linejoin:miter;stroke-miterlimit:4;stroke-dasharray:none;stroke-opacity:1"
         id="rect4781-5-9-4"
         width="9.3474684"
         height="9.3474684"
         x="445.78857"
         y="554.9967"
         ry="2.7696204" />
      <text
         xml:space="preserve"
         style="font-size:13.3333px;line-height:125%;font-family:sans-serif;-inkscape-font-specification:sans-serif;letter-spacing:0px;word-spacing:0px;fill:none;stroke:#000000;stroke-width:1px;stroke-linecap:butt;stroke-linejoin:miter;stroke-opacity:1"
         x="461.49457"
         y="565.06628"
         id="text10271-3-6-1"><tspan
           sodipodi:role="line"
           id="tspan10269-0-3-8"
           x="461.49457"
           y="565.06628"
           style="font-size:13.3333px;fill:#000000;fill-opacity:1;stroke:none">Cut</tspan></text>
      <text
         xml:space="preserve"
         style="font-size:13.3333px;line-height:125%;font-family:sans-serif;-inkscape-font-specification:sans-serif;letter-spacing:0px;word-spacing:0px;fill:none;stroke:#000000;stroke-width:1px;stroke-linecap:butt;stroke-linejoin:miter;stroke-opacity:1"
         x="436.05249"
         y="481.86838"
         id="text10271-4"><tspan
           sodipodi:role="line"
           id="tspan10269-4"
           x="436.05249"
           y="481.86838"
           style="font-size:13.3333px;fill:#000000;fill-opacity:1;stroke:none">Colors:</tspan></text>
      <text
         xml:space="preserve"
         style="font-size:13.3333px;line-height:125%;font-family:sans-serif;-inkscape-font-specification:sans-serif;letter-spacing:0px;word-spacing:0px;fill:none;stroke:#000000;stroke-width:1px;stroke-linecap:butt;stroke-linejoin:miter;stroke-opacity:1"
         x="435.11938"
         y="548.42816"
         id="text10271-9"><tspan
           sodipodi:role="line"
           id="tspan10269-9"
           x="435.11938"
           y="548.42816"
           style="font-size:13.3333px;fill:#000000;fill-opacity:1;stroke:none">Other special requirements:</tspan></text>
    </g>
    <g
       id="g1733">
      <g
         id="g1463"
         transform="translate(-217.70959,-0.0325)">
        <path
           d="m 829.48912,361.55271 a 30.236221,30.236221 0 0 0 12.59842,-24.5589 v -151.6798 a 3.779528,3.779528 0 0 0 -3.77953,-3.7795 H 653.11116 a 3.779528,3.779528 0 0 0 -3.77952,3.7795 v 151.6798 a 30.23622,30.23622 0 0 0 12.59842,24.5589 143.62205,143.62205 0 0 0 167.55906,0 z"
           style="fill:#d3d3d3;fill-opacity:1;stroke:#000000;stroke-width:0.755906;stroke-miterlimit:4;stroke-dasharray:none"
           id="path1010" />
        <path
           d="m 764.60723,222.22101 a 18.89764,18.89764 0 1 0 -37.79528,0 18.89764,18.89764 0 1 0 37.79528,0 z"
           style="fill:#ffffff;fill-opacity:1;stroke:#ff0000;stroke-opacity:1"
           id="path1012" />
      </g>
      <path
         d="m 516.3583,247.97567 h 23.2834 a 2.9104255,2.9104255 0 0 1 2.91042,2.91043 v 17.46255 a 2.9104255,2.9104255 0 0 1 -2.91042,2.91042 h -23.2834 a 2.9104255,2.9104255 0 0 1 -2.91043,-2.91042 V 250.8861 a 2.9104255,2.9104255 0 0 1 2.91043,-2.91043 m 0,2.91043 v 17.46255 h 23.2834 V 250.8861 H 516.3583 M 528,257.43455 a 2.1828191,2.1828191 0 0 1 2.18282,2.18282 A 2.1828191,2.1828191 0 0 1 528,261.80019 2.1828191,2.1828191 0 0 1 525.81718,259.61737 2.1828191,2.1828191 0 0 1 528,257.43455 m 0,-4.36564 c 3.11415,0 5.71898,2.18282 6.38838,5.09325 h -2.27013 c -0.59664,-1.7026 -2.21192,-2.91043 -4.11825,-2.91043 -1.90633,0 -3.52162,1.20783 -4.11825,2.91043 h -2.27014 c 0.6694,-2.91043 3.27423,-5.09325 6.38839,-5.09325 m 0,13.09692 c -3.11416,0 -5.71899,-2.18282 -6.38839,-5.09325 h 2.27014 c 0.59663,1.7026 2.21192,2.91043 4.11825,2.91043 1.90633,0 3.52161,-1.20783 4.11825,-2.91043 h 2.27013 c -0.6694,2.91043 -3.27423,5.09325 -6.38838,5.09325 z"
         id="path2"
         style="fill:#2d2926;fill-opacity:1;stroke-width:1.45521" />
      <g
         id="g51556"
         transform="translate(0,6)">
        <g
           id="g1070"
           transform="matrix(1.4417185,0,0,1.4417185,442.86492,299.87118)"
           style="fill:#2d2926;fill-opacity:1">
          <path
             d="m 17.522314,9.6405489 0.330199,-1.523994 h 1.523994 l -0.330199,1.523994 z m -2.031992,0 0.330199,-1.523994 h 1.523994 l -0.330199,1.523994 z m 1.600194,2.0319921 0.330198,-1.523994 h 1.523994 L 18.61451,11.672541 Z M 13.45833,9.6405489 13.788528,8.1165549 h 1.523995 l -0.330199,1.523994 z m 3.200387,4.0639841 0.330199,-1.523994 h 1.523994 l -0.330199,1.523994 z m -5.232379,-4.0639841 0.330198,-1.523994 h 1.523994 l -0.330198,1.523994 z m 4.800581,6.0959761 0.330199,-1.523994 h 1.523994 l -0.330199,1.523994 z m -5.23238,-4.063984 0.330199,-1.523994 h 1.523994 l -0.330199,1.523994 z m 4.800582,6.095976 0.330198,-1.523994 h 1.523994 l -0.330198,1.523994 z m -5.23238,-4.063984 0.330199,-1.523994 h 1.523994 l -0.330199,1.523994 z m 4.800581,6.095976 0.330199,-1.523994 h 1.523994 l -0.330199,1.523994 z m -5.232379,-4.063984 0.330199,-1.523994 h 1.523994 l -0.330199,1.523994 z m 4.800581,6.095976 0.330199,-1.523994 h 1.523994 l -0.330199,1.523994 z M 9.6991445,17.768517 10.029343,16.244523 h 1.523994 l -0.330198,1.523994 z m 3.2003875,4.063984 0.330199,-1.523994 h 1.523994 l -0.330199,1.523994 z M 9.2673462,19.800509 9.5975449,18.276515 h 1.5239941 l -0.330199,1.523994 z m 1.6001938,2.031992 0.330199,-1.523994 h 1.523994 l -0.330199,1.523994 z m -2.0319921,0 0.3301987,-1.523994 h 1.5239944 l -0.330199,1.523994 z m -0.4317983,2.031992 0.3301987,-1.523994 h 1.5239937 l -0.3301984,1.523994 z"
             style="font-size:25.3999px;line-height:125%;font-family:'Failed Attempt';-inkscape-font-specification:'Failed Attempt, Normal';letter-spacing:0px;word-spacing:0px;fill:#2d2926;fill-opacity:1;stroke-width:0.635px"
             id="path932" />
          <path
             d="m 26.818667,13.704533 0.330199,-1.523994 h 1.523994 l -0.330198,1.523994 z m -2.031992,0 0.330199,-1.523994 h 1.523994 l -0.330199,1.523994 z m -2.031992,0 0.330199,-1.523994 h 1.523994 l -0.330199,1.523994 z m -2.031992,0 0.330199,-1.523994 h 1.523994 l -0.330199,1.523994 z m -0.431798,2.031992 0.330199,-1.523994 h 1.523994 l -0.330199,1.523994 z m -0.431798,2.031992 0.330198,-1.523994 h 1.523995 l -0.330199,1.523994 z m -0.431799,2.031992 0.330199,-1.523994 h 1.523994 l -0.330199,1.523994 z m -0.431798,2.031992 0.330199,-1.523994 h 1.523994 l -0.330199,1.523994 z m -0.431798,2.031992 0.330199,-1.523994 h 1.523994 l -0.330199,1.523994 z"
             style="font-size:25.3999px;line-height:125%;font-family:'Failed Attempt';-inkscape-font-specification:'Failed Attempt, Normal';letter-spacing:0px;word-spacing:0px;fill:#2d2926;fill-opacity:1;stroke-width:0.635px"
             id="path934" />
          <path
             d="m 33.77823,9.6405489 0.330199,-1.523994 h 1.523994 l -0.330199,1.523994 z m -0.863596,4.0639841 0.330198,-1.523994 h 1.523994 l -0.330198,1.523994 z m -2.031992,0 0.330198,-1.523994 h 1.523994 l -0.330198,1.523994 z m 1.600193,2.031992 0.330199,-1.523994 h 1.523994 l -0.330199,1.523994 z m -0.431798,2.031992 0.330199,-1.523994 h 1.523994 l -0.330199,1.523994 z m -0.431798,2.031992 0.330198,-1.523994 h 1.523994 l -0.330198,1.523994 z m -0.431799,2.031992 0.330199,-1.523994 h 1.523994 l -0.330199,1.523994 z m -0.431798,2.031992 0.330199,-1.523994 h 1.523994 l -0.330199,1.523994 z"
             style="font-size:25.3999px;line-height:125%;font-family:'Failed Attempt';-inkscape-font-specification:'Failed Attempt, Normal';letter-spacing:0px;word-spacing:0px;fill:#2d2926;fill-opacity:1;stroke-width:0.635px"
             id="path936" />
          <path
             d="m 43.074588,13.704533 0.330199,-1.523994 h 1.523994 l -0.330199,1.523994 z m -2.031992,0 0.330199,-1.523994 h 1.523994 l -0.330199,1.523994 z m 1.600194,2.031992 0.330198,-1.523994 h 1.523994 l -0.330198,1.523994 z m -3.632186,-2.031992 0.330199,-1.523994 h 1.523994 l -0.330199,1.523994 z m 3.200387,4.063984 0.330199,-1.523994 h 1.523994 l -0.330199,1.523994 z m -5.232379,-4.063984 0.330199,-1.523994 h 1.523994 l -0.330199,1.523994 z m 4.800581,6.095976 0.330199,-1.523994 h 1.523994 l -0.330199,1.523994 z m -5.23238,-4.063984 0.330199,-1.523994 h 1.523994 l -0.330198,1.523994 z m 4.800582,6.095976 0.330198,-1.523994 h 1.523994 l -0.330198,1.523994 z m -5.23238,-4.063984 0.330199,-1.523994 h 1.523994 l -0.330199,1.523994 z m 4.800581,6.095976 0.330199,-1.523994 h 1.523994 l -0.330199,1.523994 z m -5.232379,-4.063984 0.330199,-1.523994 h 1.523994 l -0.330199,1.523994 z m -0.431798,2.031992 0.330198,-1.523994 h 1.523994 l -0.330198,1.523994 z m -0.431799,2.031992 0.330199,-1.523994 h 1.523994 l -0.330199,1.523994 z"
             style="font-size:25.3999px;line-height:125%;font-family:'Failed Attempt';-inkscape-font-specification:'Failed Attempt, Normal';letter-spacing:0px;word-spacing:0px;fill:#2d2926;fill-opacity:1;stroke-width:0.635px"
             id="path938" />
          <path
             d="m 50.034151,9.6405489 0.330198,-1.523994 h 1.523994 l -0.330198,1.523994 z m 3.200387,4.0639841 0.330199,-1.523994 h 1.523994 l -0.330199,1.523994 z m -3.632186,-2.031992 0.330199,-1.523994 h 1.523994 l -0.330199,1.523994 z m 1.600194,2.031992 0.330199,-1.523994 h 1.523994 l -0.330199,1.523994 z m -2.031992,0 0.330199,-1.523994 h 1.523994 l -0.330199,1.523994 z m -2.031992,0 0.330199,-1.523994 h 1.523994 l -0.330199,1.523994 z m 1.600194,2.031992 0.330198,-1.523994 h 1.523995 l -0.330199,1.523994 z m -0.431799,2.031992 0.330199,-1.523994 h 1.523994 l -0.330198,1.523994 z m -0.431798,2.031992 0.330199,-1.523994 h 1.523994 l -0.330199,1.523994 z m 3.200388,4.063984 0.330198,-1.523994 h 1.523994 l -0.330198,1.523994 z m -3.632186,-2.031992 0.330199,-1.523994 h 1.523994 l -0.330199,1.523994 z m 1.600194,2.031992 0.330198,-1.523994 h 1.523994 l -0.330198,1.523994 z m -2.031992,0 0.330198,-1.523994 h 1.523994 l -0.330198,1.523994 z"
             style="font-size:25.3999px;line-height:125%;font-family:'Failed Attempt';-inkscape-font-specification:'Failed Attempt, Normal';letter-spacing:0px;word-spacing:0px;fill:#2d2926;fill-opacity:1;stroke-width:0.635px"
             id="path940" />
          <path
             d="m 63.394488,13.704533 0.330199,-1.523994 h 1.523994 l -0.330199,1.523994 z m -2.031992,0 0.330199,-1.523994 h 1.523994 l -0.330199,1.523994 z m 1.600194,2.031992 0.330199,-1.523994 h 1.523994 l -0.330199,1.523994 z m -3.632186,-2.031992 0.330199,-1.523994 h 1.523994 l -0.330199,1.523994 z m 3.200388,4.063984 0.330199,-1.523994 h 1.523994 l -0.330199,1.523994 z m -5.23238,-4.063984 0.330199,-1.523994 h 1.523994 l -0.330199,1.523994 z m 4.800581,6.095976 0.330199,-1.523994 h 1.523994 l -0.330198,1.523994 z m -2.031992,0 0.330199,-1.523994 h 1.523994 l -0.330199,1.523994 z m 1.600194,2.031992 0.330199,-1.523994 h 1.523994 l -0.330199,1.523994 z m -3.632186,-2.031992 0.330199,-1.523994 h 1.523994 l -0.330199,1.523994 z m 3.200388,4.063984 0.330199,-1.523994 h 1.523994 l -0.330199,1.523994 z m -5.23238,-4.063984 0.330199,-1.523994 h 1.523994 l -0.330199,1.523994 z m 3.200388,4.063984 0.330199,-1.523994 h 1.523994 l -0.330199,1.523994 z m -3.632186,-2.031992 0.330199,-1.523994 h 1.523994 l -0.330199,1.523994 z m 1.600194,2.031992 0.330199,-1.523994 h 1.523994 l -0.330199,1.523994 z m -2.031992,0 0.330198,-1.523994 h 1.523995 l -0.330199,1.523994 z"
             style="font-size:25.3999px;line-height:125%;font-family:'Failed Attempt';-inkscape-font-specification:'Failed Attempt, Normal';letter-spacing:0px;word-spacing:0px;fill:#2d2926;fill-opacity:1;stroke-width:0.635px"
             id="path942" />
          <path
             d="m 68.322059,9.6405489 0.330199,-1.523994 h 1.523994 l -0.330199,1.523994 z m -0.431798,2.0319921 0.330199,-1.523994 h 1.523994 l -0.330199,1.523994 z m -0.431798,2.031992 0.330198,-1.523994 h 1.523994 l -0.330198,1.523994 z m -0.431799,2.031992 0.330199,-1.523994 h 1.523994 l -0.330199,1.523994 z m -0.431798,2.031992 0.330199,-1.523994 h 1.523994 l -0.330199,1.523994 z m -0.431798,2.031992 0.330198,-1.523994 h 1.523994 l -0.330198,1.523994 z m -0.431799,2.031992 0.330199,-1.523994 h 1.523994 l -0.330199,1.523994 z m -0.431798,2.031992 0.330199,-1.523994 h 1.523994 l -0.330199,1.523994 z"
             style="font-size:25.3999px;line-height:125%;font-family:'Failed Attempt';-inkscape-font-specification:'Failed Attempt, Normal';letter-spacing:0px;word-spacing:0px;fill:#2d2926;fill-opacity:1;stroke-width:0.635px"
             id="path944" />
          <path
             d="m 77.364413,13.704533 0.330199,-1.523994 h 1.523994 l -0.330199,1.523994 z m -0.431798,2.031992 0.330199,-1.523994 h 1.523994 l -0.330199,1.523994 z m -0.431798,2.031992 0.330198,-1.523994 h 1.523994 l -0.330198,1.523994 z m -5.23238,-4.063984 0.330199,-1.523994 h 1.523994 l -0.330199,1.523994 z m 4.800581,6.095976 0.330199,-1.523994 h 1.523994 l -0.330199,1.523994 z m -5.232379,-4.063984 0.330199,-1.523994 h 1.523994 l -0.330199,1.523994 z m 3.200387,4.063984 0.330199,-1.523994 h 1.523994 l -0.330199,1.523994 z m 1.600194,2.031992 0.330199,-1.523994 h 1.523994 l -0.330199,1.523994 z m -5.232379,-4.063984 0.330198,-1.523994 h 1.523994 l -0.330198,1.523994 z m 1.600193,2.031992 0.330199,-1.523994 h 1.523994 l -0.330199,1.523994 z m 3.200388,4.063984 0.330199,-1.523994 h 1.523994 l -0.330199,1.523994 z m -5.23238,-4.063984 0.330199,-1.523994 h 1.523994 l -0.330199,1.523994 z m 3.200388,4.063984 0.330198,-1.523994 h 1.523995 l -0.330199,1.523994 z m -2.031992,0 0.330198,-1.523994 h 1.523994 l -0.330198,1.523994 z m -2.031992,0 0.330198,-1.523994 h 1.523994 l -0.330198,1.523994 z"
             style="font-size:25.3999px;line-height:125%;font-family:'Failed Attempt';-inkscape-font-specification:'Failed Attempt, Normal';letter-spacing:0px;word-spacing:0px;fill:#2d2926;fill-opacity:1;stroke-width:0.635px"
             id="path946" />
          <path
             d="m 87.524364,13.704533 0.330198,-1.523994 h 1.523994 l -0.330198,1.523994 z m -2.031992,0 0.330198,-1.523994 h 1.523994 l -0.330198,1.523994 z m 1.600193,2.031992 0.330199,-1.523994 h 1.523994 l -0.330199,1.523994 z m -3.632185,-2.031992 0.330198,-1.523994 h 1.523994 l -0.330198,1.523994 z m 3.200387,4.063984 0.330199,-1.523994 h 1.523994 l -0.330199,1.523994 z m -5.23238,-4.063984 0.330199,-1.523994 h 1.523994 l -0.330198,1.523994 z m 4.800582,6.095976 0.330198,-1.523994 h 1.523994 l -0.330198,1.523994 z m -2.031992,0 0.330198,-1.523994 h 1.523994 l -0.330198,1.523994 z m -2.031992,0 0.330198,-1.523994 h 1.523994 l -0.330198,1.523994 z m 3.200387,4.063984 0.330199,-1.523994 h 1.523994 l -0.330199,1.523994 z m -5.232379,-4.063984 0.330198,-1.523994 h 1.523994 l -0.330198,1.523994 z m 3.200387,4.063984 0.330199,-1.523994 h 1.523994 l -0.330199,1.523994 z m -3.632186,-2.031992 0.330199,-1.523994 h 1.523994 l -0.330199,1.523994 z m 1.600194,2.031992 0.330199,-1.523994 h 1.523994 l -0.330199,1.523994 z m -2.031992,0 0.330199,-1.523994 h 1.523994 l -0.330199,1.523994 z"
             style="font-size:25.3999px;line-height:125%;font-family:'Failed Attempt';-inkscape-font-specification:'Failed Attempt, Normal';letter-spacing:0px;word-spacing:0px;fill:#2d2926;fill-opacity:1;stroke-width:0.635px"
             id="path948" />
          <path
             d="m 97.684314,13.704533 0.330199,-1.523994 h 1.523994 l -0.330199,1.523994 z m -2.031992,0 0.330199,-1.523994 h 1.523994 l -0.330199,1.523994 z m 1.600194,2.031992 0.330198,-1.523994 h 1.523994 l -0.330198,1.523994 z m -3.632186,-2.031992 0.330198,-1.523994 h 1.523995 l -0.330199,1.523994 z m 3.200387,4.063984 0.330199,-1.523994 h 1.523994 l -0.330199,1.523994 z m -5.232379,-4.063984 0.330198,-1.523994 h 1.523994 l -0.330198,1.523994 z m 4.800581,6.095976 0.330199,-1.523994 h 1.523994 l -0.330199,1.523994 z m -5.23238,-4.063984 0.330199,-1.523994 h 1.523994 l -0.330199,1.523994 z m 3.200388,4.063984 0.330199,-1.523994 h 1.523994 l -0.330199,1.523994 z m -3.632186,-2.031992 0.330199,-1.523994 h 1.523994 l -0.330199,1.523994 z m 1.600194,2.031992 0.330199,-1.523994 h 1.523994 l -0.330199,1.523994 z m 3.200387,4.063984 0.330199,-1.523994 h 1.523994 l -0.330199,1.523994 z m -5.232379,-4.063984 0.330199,-1.523994 h 1.523994 l -0.330199,1.523994 z m 3.200387,4.063984 0.330199,-1.523994 h 1.523994 l -0.330199,1.523994 z m -3.632185,-2.031992 0.330198,-1.523994 h 1.523994 l -0.330198,1.523994 z m 1.600193,2.031992 0.330199,-1.523994 h 1.523994 l -0.330199,1.523994 z m -2.031992,0 0.330199,-1.523994 h 1.523994 l -0.330199,1.523994 z"
             style="font-size:25.3999px;line-height:125%;font-family:'Failed Attempt';-inkscape-font-specification:'Failed Attempt, Normal';letter-spacing:0px;word-spacing:0px;fill:#2d2926;fill-opacity:1;stroke-width:0.635px"
             id="path950" />
          <path
             d="m 107.84426,13.704533 0.3302,-1.523994 h 1.524 l -0.3302,1.523994 z m -2.03199,0 0.3302,-1.523994 h 1.52399 l -0.33019,1.523994 z m -2.03199,0 0.3302,-1.523994 h 1.52399 l -0.3302,1.523994 z m -2.03199,0 0.3302,-1.523994 h 1.52399 l -0.3302,1.523994 z m -0.4318,2.031992 0.3302,-1.523994 h 1.52399 l -0.3302,1.523994 z m -0.4318,2.031992 0.3302,-1.523994 h 1.52399 l -0.33019,1.523994 z m -0.4318,2.031992 0.3302,-1.523994 h 1.524 l -0.3302,1.523994 z m -0.4318,2.031992 0.3302,-1.523994 h 1.524 l -0.3302,1.523994 z m -0.431794,2.031992 0.330199,-1.523994 h 1.523995 l -0.3302,1.523994 z"
             style="font-size:25.3999px;line-height:125%;font-family:'Failed Attempt';-inkscape-font-specification:'Failed Attempt, Normal';letter-spacing:0px;word-spacing:0px;fill:#2d2926;fill-opacity:1;stroke-width:0.635px"
             id="path952" />
        </g>
        <g
           aria-label="Enlarger Meter Probe"
           id="text41399"
           style="font-size:16.4911px;line-height:1.25;font-family:Arial;-inkscape-font-specification:Arial;fill:#2d2926;stroke-width:1.37426">
          <path
             d="m 457.56673,341.34425 h -0.099 c -0.89052,0 -1.07192,0.14842 -1.07192,0.87402 v 0.0825 l -0.0495,9.39993 v 0.0165 c 0,0.59368 0.1814,0.75859 0.77508,0.75859 h 0.099 6.25012 0.11544 c 0.34632,0 0.62666,-0.26386 0.62666,-0.62666 0,-0.39579 -0.28034,-0.61017 -0.79157,-0.61017 h -0.11544 -5.49153 -0.0825 c -0.0989,0 -0.16491,-0.0495 -0.16491,-0.11544 v -0.0825 l 0.0165,-3.31471 v -0.033 c 0,-0.0495 0,-0.0495 0,-0.066 0,-0.066 0.066,-0.11544 0.16491,-0.11544 h 0.066 l 4.58452,0.0165 h 0.066 c 0.37929,0 0.64315,-0.26386 0.64315,-0.64315 0,-0.34632 -0.28035,-0.5607 -0.72561,-0.5607 h -0.0824 l -4.40313,-0.0165 h -0.066 c -0.16491,0 -0.21439,-0.033 -0.21439,-0.18141 v -0.0495 -3.26524 -0.0495 c 0,-0.13193 0.066,-0.1814 0.24737,-0.1814 h 0.099 5.50802 0.0825 c 0.44526,0 0.69263,-0.19789 0.69263,-0.59368 0,-0.3793 -0.26386,-0.61017 -0.70912,-0.61017 h -0.066 z"
             style="font-family:Din17;-inkscape-font-specification:Din17"
             id="path51440" />
          <path
             d="m 472.77152,348.25402 v -0.0825 c 0,-2.0449 -1.45121,-3.57857 -3.41365,-3.57857 -0.72561,0 -1.38526,0.23088 -1.96245,0.67614 -0.066,0.0495 -0.11543,0.0495 -0.14842,0.066 -0.033,0 -0.0495,0 -0.066,-0.0824 -0.033,-0.29684 -0.29684,-0.52772 -0.61017,-0.52772 -0.47824,0 -0.65964,0.26386 -0.65964,0.98947 v 0.0824 5.92031 0.0824 c 0,0.47825 0.23087,0.7421 0.62666,0.7421 0.41227,0 0.67613,-0.28035 0.67613,-0.72561 v -0.16491 -2.88594 -0.099 c 0,-0.56069 0.033,-1.02244 0.13193,-1.36876 0.21439,-0.79157 1.03894,-1.38525 1.96244,-1.38525 1.3028,0 2.17683,0.93999 2.17683,2.35823 v 0.0824 3.3477 0.0495 c 0,0.51122 0.21438,0.72561 0.64315,0.72561 0.41228,0 0.64315,-0.28035 0.64315,-0.77508 v -0.066 z"
             style="font-family:Din17;-inkscape-font-specification:Din17"
             id="path51442" />
          <path
             d="m 475.97079,342.30073 v -0.0825 c 0,-0.41227 -0.23088,-0.69262 -0.59368,-0.69262 -0.41228,0 -0.62667,0.26386 -0.62667,0.75859 v 0.099 8.41046 0.0989 c 0,1.02245 0.51123,1.74806 1.18736,1.74806 0.32983,0 0.61017,-0.26386 0.61017,-0.59368 0,-0.21438 -0.0824,-0.3628 -0.29684,-0.52772 -0.21438,-0.16491 -0.28034,-0.32982 -0.28034,-0.7256 v -0.099 z"
             style="font-family:Din17;-inkscape-font-specification:Din17"
             id="path51444" />
          <path
             d="m 483.55669,348.40244 v 0.16491 c 0,0.95648 -0.066,1.25332 -0.3793,1.78104 -0.34631,0.56069 -1.03894,0.9235 -1.78104,0.9235 -0.90701,0 -1.76455,-0.5607 -2.06139,-1.35227 -0.11543,-0.31333 -0.1814,-0.80807 -0.1814,-1.41824 0,-0.34631 0.0165,-0.64315 0.0495,-0.82455 0.1979,-1.03894 1.1214,-1.83051 2.17683,-1.83051 0.64315,0 1.26981,0.29684 1.68209,0.80806 0.39579,0.47824 0.49474,0.82456 0.49474,1.74806 z m 1.25332,2.19331 v -5.26066 c 0,-0.37929 -0.24737,-0.64315 -0.61017,-0.64315 -0.28035,0 -0.49473,0.1814 -0.57719,0.46175 -0.033,0.13193 -0.066,0.16491 -0.13193,0.14842 -0.033,0 -0.066,0 -0.0824,-0.0165 -0.0165,0 -0.0495,0 -0.0825,-0.033 -0.69263,-0.42877 -1.23683,-0.59368 -1.92946,-0.59368 -1.07192,0 -2.0449,0.44526 -2.68805,1.25332 -0.59368,0.72561 -0.82455,1.45122 -0.82455,2.63858 0,1.20385 0.23087,1.96244 0.79157,2.65506 0.64315,0.79158 1.69858,1.28631 2.72103,1.28631 0.77508,0 1.50069,-0.24737 2.14384,-0.75859 0.066,-0.066 0.099,-0.066 0.13193,-0.066 0.033,0 0.066,0 0.0825,0.0495 0.28035,0.46175 0.62666,0.70912 1.03894,0.70912 0.31333,0 0.5607,-0.29684 0.5607,-0.65965 0,-0.14842 -0.0495,-0.29684 -0.18141,-0.39579 l -0.066,-0.066 c -0.21439,-0.19789 -0.29684,-0.3628 -0.29684,-0.65964 z"
             style="font-family:Din17;-inkscape-font-specification:Din17"
             id="path51446" />
          <path
             d="m 488.28961,347.9077 v -0.0989 c 0,-1.18736 0.57719,-1.91297 1.53367,-1.91297 0.24737,0 0.54421,0.13193 0.90701,0.39579 0.18141,0.11543 0.24737,0.14842 0.36281,0.14842 0.32982,0 0.61017,-0.29684 0.61017,-0.64316 0,-0.19789 -0.0825,-0.3628 -0.29684,-0.52771 -0.44526,-0.36281 -1.02245,-0.57719 -1.58315,-0.57719 -0.41227,0 -0.95648,0.1814 -1.38525,0.44526 -0.066,0.0495 -0.0825,0.0495 -0.099,0.0495 -0.033,0 -0.066,0 -0.13192,-0.0989 -0.11544,-0.1979 -0.31334,-0.29684 -0.52772,-0.29684 -0.41228,0 -0.62666,0.28034 -0.62666,0.85753 v 0.0825 5.95329 0.0989 c 0,0.52772 0.19789,0.75859 0.62666,0.75859 0.42877,0 0.61017,-0.23087 0.61017,-0.79157 v -0.099 z"
             style="font-family:Din17;-inkscape-font-specification:Din17"
             id="path51448" />
          <path
             d="m 498.11828,348.91366 c 0,0.46175 -0.0495,0.87403 -0.13193,1.20385 -0.24737,0.85754 -1.13789,1.4842 -2.09437,1.4842 -0.90701,0 -1.71508,-0.52772 -2.06139,-1.33578 -0.13193,-0.31333 -0.16491,-0.5607 -0.16491,-1.36876 0,-0.47824 0.033,-0.84105 0.0824,-1.07192 0.1979,-0.89052 1.17087,-1.63262 2.19332,-1.63262 0.3793,0 0.75859,0.099 1.08841,0.28035 0.79158,0.46175 1.08842,1.13788 1.08842,2.44068 z m 1.26981,-2.98489 v -0.13193 c 0,-0.52771 -0.19789,-0.77508 -0.62666,-0.77508 -0.31333,0 -0.54421,0.19789 -0.59368,0.54421 -0.0165,0.066 -0.033,0.066 -0.099,0.0824 -0.0165,0 -0.0495,0 -0.066,-0.033 -0.49474,-0.39579 -1.40175,-0.69263 -2.12735,-0.69263 -0.62667,0 -1.22035,0.18141 -1.73157,0.51123 -1.20385,0.75859 -1.69858,1.74806 -1.69858,3.46313 0,0.46175 0.0495,0.90701 0.11543,1.26981 0.31334,1.53368 1.71508,2.62209 3.31472,2.62209 0.7421,0 1.51718,-0.24737 2.11086,-0.67614 l 0.033,-0.033 c 0.033,-0.033 0.0495,-0.033 0.066,-0.033 0.066,0 0.0825,0.11544 0.0825,0.44526 0,1.46771 -0.93999,2.53963 -2.25928,2.53963 -0.72561,0 -1.33578,-0.31333 -1.81402,-0.89052 -0.16491,-0.19789 -0.32982,-0.28035 -0.51123,-0.28035 -0.32982,0 -0.61017,0.28035 -0.61017,0.59368 0,0.11544 0.0495,0.23088 0.13193,0.3628 0.65965,0.90702 1.64911,1.40175 2.77051,1.40175 2.07787,0 3.52909,-1.58315 3.52909,-3.87541 z"
             style="font-family:Din17;-inkscape-font-specification:Din17"
             id="path51450" />
          <path
             d="m 502.5214,348.00665 h -0.14842 c -0.099,0 -0.14842,-0.033 -0.14842,-0.11544 0,-1.03894 1.05543,-2.01191 2.19332,-2.01191 1.1049,0 2.14384,0.97297 2.14384,1.97893 0,0.11544 -0.033,0.13193 -0.31333,0.13193 z m 0,1.23683 4.37014,-0.0165 c 0.75859,0 0.97298,-0.23087 0.97298,-1.1049 0,-1.92946 -1.53368,-3.46313 -3.44664,-3.46313 -1.38526,0 -2.72104,0.85753 -3.1663,2.0284 -0.1814,0.46175 -0.31333,1.33578 -0.31333,2.02841 0,2.25928 1.41824,3.79295 3.44664,3.80944 0.87403,0 1.63262,-0.28035 2.32525,-0.85754 0.23087,-0.1814 0.29684,-0.32982 0.29684,-0.5442 0,-0.36281 -0.23088,-0.59368 -0.57719,-0.59368 -0.1814,0 -0.28035,0.033 -0.46175,0.1814 -0.49473,0.41228 -0.98947,0.59368 -1.56666,0.59368 -1.1049,0 -2.16033,-0.95648 -2.14384,-1.96244 0,-0.0825 0.0165,-0.0825 0.099,-0.099 h 0.11544 z"
             style="font-family:Din17;-inkscape-font-specification:Din17"
             id="path51452" />
          <path
             d="m 510.65149,347.9077 v -0.0989 c 0,-1.18736 0.57719,-1.91297 1.53367,-1.91297 0.24737,0 0.54421,0.13193 0.90702,0.39579 0.1814,0.11543 0.24736,0.14842 0.3628,0.14842 0.32982,0 0.61017,-0.29684 0.61017,-0.64316 0,-0.19789 -0.0825,-0.3628 -0.29684,-0.52771 -0.44526,-0.36281 -1.02245,-0.57719 -1.58315,-0.57719 -0.41227,0 -0.95648,0.1814 -1.38525,0.44526 -0.066,0.0495 -0.0824,0.0495 -0.0989,0.0495 -0.033,0 -0.066,0 -0.13193,-0.0989 -0.11544,-0.1979 -0.31333,-0.29684 -0.52772,-0.29684 -0.41228,0 -0.62666,0.28034 -0.62666,0.85753 v 0.0825 5.95329 0.0989 c 0,0.52772 0.19789,0.75859 0.62666,0.75859 0.42877,0 0.61017,-0.23087 0.61017,-0.79157 v -0.099 z"
             style="font-family:Din17;-inkscape-font-specification:Din17"
             id="path51454" />
          <path
             d="m 528.94008,342.26775 v -0.0495 c 0,-0.56069 -0.18141,-0.80806 -0.5607,-0.80806 -0.29684,0 -0.51123,0.19789 -0.75859,0.72561 -0.0165,0.033 -0.0165,0.033 -0.0165,0.033 l -3.03437,6.03574 c -0.033,0.066 -0.0824,0.066 -0.0989,0.099 -0.0165,0 -0.033,0 -0.033,-0.0165 l -0.0495,-0.0495 -0.0165,-0.0165 -3.05085,-6.01925 -0.0495,-0.0824 c -0.28034,-0.54421 -0.42876,-0.67614 -0.75859,-0.67614 -0.37929,0 -0.52771,0.1979 -0.52771,0.67614 v 0.0824 9.48239 0.14842 c 0,0.42876 0.24736,0.69262 0.62666,0.69262 0.41228,0 0.61017,-0.26386 0.61017,-0.84104 v -0.0495 -6.62942 -0.033 c 0,-0.066 0.0165,-0.066 0.0495,-0.0825 0.0165,0.0165 0.033,0 0.033,0.0165 l 0.033,0.066 0.0165,0.0165 2.35823,4.66698 c 0.24736,0.49473 0.46175,0.70912 0.75859,0.70912 0.29684,0 0.52771,-0.1814 0.72561,-0.57719 l 0.0495,-0.11544 2.30875,-4.65049 v -0.0165 l 0.033,-0.066 c 0.033,-0.066 0.0495,-0.066 0.066,-0.0825 0.033,0 0.066,0.099 0.066,0.24737 v 0.0165 l 0.0165,6.61293 v 0.099 c 0,0.41227 0.21438,0.64315 0.57718,0.64315 0.3793,0 0.62667,-0.26386 0.62667,-0.65965 v -0.14842 z"
             style="font-family:Din17;-inkscape-font-specification:Din17"
             id="path51456" />
          <path
             d="m 532.18879,348.00665 h -0.14842 c -0.099,0 -0.14842,-0.033 -0.14842,-0.11544 0,-1.03894 1.05543,-2.01191 2.19331,-2.01191 1.10491,0 2.14385,0.97297 2.14385,1.97893 0,0.11544 -0.033,0.13193 -0.31333,0.13193 z m 0,1.23683 4.37014,-0.0165 c 0.75859,0 0.97297,-0.23087 0.97297,-1.1049 0,-1.92946 -1.53367,-3.46313 -3.44664,-3.46313 -1.38525,0 -2.72103,0.85753 -3.16629,2.0284 -0.1814,0.46175 -0.31333,1.33578 -0.31333,2.02841 0,2.25928 1.41824,3.79295 3.44664,3.80944 0.87403,0 1.63262,-0.28035 2.32525,-0.85754 0.23087,-0.1814 0.29684,-0.32982 0.29684,-0.5442 0,-0.36281 -0.23088,-0.59368 -0.57719,-0.59368 -0.1814,0 -0.28035,0.033 -0.46175,0.1814 -0.49474,0.41228 -0.98947,0.59368 -1.56666,0.59368 -1.1049,0 -2.16033,-0.95648 -2.14384,-1.96244 0,-0.0825 0.0165,-0.0825 0.0989,-0.099 h 0.11543 z"
             style="font-family:Din17;-inkscape-font-specification:Din17"
             id="path51458" />
          <path
             d="m 540.83011,344.54352 0.0165,-2.35823 v -0.0824 c 0,-0.42877 -0.24736,-0.69263 -0.62666,-0.69263 -0.39578,0 -0.62666,0.26386 -0.62666,0.69263 v 0.0989 l -0.0165,2.25928 v 0.066 0.033 c 0,0.16491 -0.0495,0.19789 -0.23088,0.19789 h -0.033 -0.0495 c -0.5607,0 -0.84105,0.21439 -0.84105,0.64316 0,0.39578 0.26386,0.61017 0.82456,0.61017 h 0.0495 0.0165 c 0.19789,0 0.24737,0.033 0.24737,0.1814 v 0.066 l -0.033,4.68348 v 0.033 c 0,1.15438 0.44526,1.58314 1.58314,1.58314 0.5607,0 0.85754,-0.19789 0.85754,-0.61017 0,-0.34631 -0.19789,-0.56069 -0.5607,-0.61017 l -0.14842,-0.0165 c -0.37929,-0.066 -0.47824,-0.19789 -0.47824,-0.67613 v -0.0825 l 0.033,-4.33716 v -0.033 c 0,-0.16491 0.0165,-0.1814 0.23088,-0.1814 0.033,0 0.0989,0 0.23087,0 h 0.066 c 0.42877,0 0.69262,-0.23088 0.69262,-0.62666 0,-0.46176 -0.23087,-0.61018 -0.95648,-0.62667 -0.23088,0 -0.24737,0 -0.24737,-0.1814 z"
             style="font-family:Din17;-inkscape-font-specification:Din17"
             id="path51460" />
          <path
             d="m 544.47464,348.00665 h -0.14842 c -0.099,0 -0.14842,-0.033 -0.14842,-0.11544 0,-1.03894 1.05543,-2.01191 2.19331,-2.01191 1.10491,0 2.14385,0.97297 2.14385,1.97893 0,0.11544 -0.033,0.13193 -0.31333,0.13193 z m 0,1.23683 4.37014,-0.0165 c 0.75859,0 0.97297,-0.23087 0.97297,-1.1049 0,-1.92946 -1.53367,-3.46313 -3.44664,-3.46313 -1.38525,0 -2.72103,0.85753 -3.16629,2.0284 -0.1814,0.46175 -0.31333,1.33578 -0.31333,2.02841 0,2.25928 1.41824,3.79295 3.44664,3.80944 0.87403,0 1.63262,-0.28035 2.32525,-0.85754 0.23087,-0.1814 0.29684,-0.32982 0.29684,-0.5442 0,-0.36281 -0.23088,-0.59368 -0.57719,-0.59368 -0.1814,0 -0.28035,0.033 -0.46175,0.1814 -0.49473,0.41228 -0.98947,0.59368 -1.56666,0.59368 -1.1049,0 -2.16033,-0.95648 -2.14384,-1.96244 0,-0.0825 0.0165,-0.0825 0.0989,-0.099 h 0.11544 z"
             style="font-family:Din17;-inkscape-font-specification:Din17"
             id="path51462" />
          <path
             d="m 552.60474,347.9077 v -0.0989 c 0,-1.18736 0.57719,-1.91297 1.53367,-1.91297 0.24737,0 0.54421,0.13193 0.90701,0.39579 0.1814,0.11543 0.24737,0.14842 0.36281,0.14842 0.32982,0 0.61017,-0.29684 0.61017,-0.64316 0,-0.19789 -0.0825,-0.3628 -0.29684,-0.52771 -0.44526,-0.36281 -1.02245,-0.57719 -1.58315,-0.57719 -0.41228,0 -0.95648,0.1814 -1.38525,0.44526 -0.066,0.0495 -0.0825,0.0495 -0.0989,0.0495 -0.033,0 -0.066,0 -0.13193,-0.0989 -0.11543,-0.1979 -0.31333,-0.29684 -0.52771,-0.29684 -0.41228,0 -0.62666,0.28034 -0.62666,0.85753 v 0.0825 5.95329 0.0989 c 0,0.52772 0.19789,0.75859 0.62666,0.75859 0.42877,0 0.61017,-0.23087 0.61017,-0.79157 v -0.099 z"
             style="font-family:Din17;-inkscape-font-specification:Din17"
             id="path51464" />
          <path
             d="m 563.38987,346.39052 h -0.0495 c -0.099,0 -0.14842,-0.066 -0.14842,-0.19789 v -0.066 -3.18278 l -0.0165,-0.0495 c 0,-0.14842 0.066,-0.19789 0.23088,-0.19789 h 0.0165 0.0495 3.05086 0.0989 c 1.03894,0 1.84701,0.79157 1.84701,1.79753 0,1.15437 -0.89052,1.89647 -2.30876,1.89647 h -0.0824 z m -0.31333,-4.91435 h -0.0825 c -0.97297,0 -1.05543,0.099 -1.05543,1.13789 v 0.099 8.95466 0.066 c 0,0.54421 0.21439,0.80806 0.61017,0.80806 0.41228,0 0.64316,-0.26385 0.64316,-0.80806 v -0.11544 -3.72699 -0.0824 -0.033 c 0,-0.11543 0.033,-0.14841 0.14842,-0.14841 h 0.066 l 2.52314,-0.0165 h 0.0824 c 2.2263,0 3.67752,-1.23683 3.67752,-3.11681 0,-1.78104 -1.35227,-3.01788 -3.31471,-3.01788 h -0.0825 z"
             style="font-family:Din17;-inkscape-font-specification:Din17"
             id="path51466" />
          <path
             d="m 572.06418,347.9077 v -0.0989 c 0,-1.18736 0.57719,-1.91297 1.53367,-1.91297 0.24737,0 0.54421,0.13193 0.90701,0.39579 0.18141,0.11543 0.24737,0.14842 0.36281,0.14842 0.32982,0 0.61017,-0.29684 0.61017,-0.64316 0,-0.19789 -0.0825,-0.3628 -0.29684,-0.52771 -0.44526,-0.36281 -1.02245,-0.57719 -1.58315,-0.57719 -0.41227,0 -0.95648,0.1814 -1.38525,0.44526 -0.066,0.0495 -0.0824,0.0495 -0.0989,0.0495 -0.033,0 -0.066,0 -0.13192,-0.0989 -0.11544,-0.1979 -0.31333,-0.29684 -0.52772,-0.29684 -0.41228,0 -0.62666,0.28034 -0.62666,0.85753 v 0.0825 5.95329 0.0989 c 0,0.52772 0.19789,0.75859 0.62666,0.75859 0.42877,0 0.61017,-0.23087 0.61017,-0.79157 v -0.099 z"
             style="font-family:Din17;-inkscape-font-specification:Din17"
             id="path51468" />
          <path
             d="m 581.89284,348.30349 v 0.14842 c 0,0.46175 -0.033,0.85754 -0.0989,1.17087 -0.21439,0.93999 -1.10491,1.63262 -2.09437,1.63262 -1.05543,0 -1.97894,-0.77508 -2.12736,-1.78104 -0.033,-0.23088 -0.066,-0.75859 -0.066,-1.20385 0,-0.36281 0.0165,-0.62666 0.0495,-0.80807 0.16491,-0.93999 1.08842,-1.64911 2.17683,-1.64911 1.35227,0 2.12735,0.89052 2.16033,2.49016 z m 1.25333,0.13193 c -0.0495,-2.27577 -1.46771,-3.87541 -3.43015,-3.87541 -0.61017,0 -1.20385,0.16491 -1.73157,0.49473 -1.2863,0.77509 -1.74806,1.69859 -1.74806,3.44664 0,0.59368 0.066,1.1214 0.16492,1.55017 0.3628,1.41823 1.74805,2.44068 3.28172,2.44068 2.06139,0 3.46314,-1.58315 3.46314,-3.92488 z"
             style="font-family:Din17;-inkscape-font-specification:Din17"
             id="path51470" />
          <path
             d="m 590.36927,348.58384 v 0.16491 c 0,0.89052 -0.0825,1.23683 -0.3793,1.64911 -0.37929,0.54421 -1.18736,0.95648 -1.86349,0.95648 -0.64315,0 -1.33578,-0.32982 -1.74806,-0.84104 -0.37929,-0.46175 -0.42877,-0.70912 -0.42877,-1.83051 0,-0.98947 0.033,-1.18736 0.34632,-1.6821 0.42876,-0.65964 1.12139,-1.05543 1.91296,-1.05543 0.70912,0 1.33578,0.32982 1.74806,0.9235 0.31333,0.46176 0.39579,0.80807 0.41228,1.71508 z m -4.41962,-3.31471 v -2.93542 -0.11544 c 0,-0.49473 -0.23087,-0.75859 -0.64315,-0.75859 -0.3793,0 -0.61017,0.26386 -0.61017,0.72561 v 0.0495 l 0.033,9.48238 v 0.0824 c 0,0.52772 0.19789,0.75859 0.59368,0.75859 0.34631,0 0.61017,-0.23087 0.65965,-0.61017 0,-0.066 0.033,-0.066 0.0495,-0.0989 0.0165,0 0.033,0 0.0495,0.033 l 0.033,0.033 0.0495,0.0495 c 0.51122,0.41228 1.20385,0.64316 1.96244,0.64316 1.20385,0 2.34173,-0.62666 2.9684,-1.6656 0.3628,-0.61017 0.51122,-1.26982 0.51122,-2.29227 0,-1.35227 -0.31333,-2.2098 -1.08841,-2.96839 -0.62666,-0.61018 -1.46771,-0.95649 -2.32525,-0.95649 -0.69262,0 -1.56665,0.28035 -2.0284,0.62666 -0.033,0.033 -0.066,0.033 -0.066,0.0495 -0.0165,0.0165 -0.0495,0.0165 -0.0824,0.0165 -0.0495,0 -0.066,0 -0.066,-0.099 z"
             style="font-family:Din17;-inkscape-font-specification:Din17"
             id="path51472" />
          <path
             d="m 594.31061,348.00665 h -0.14842 c -0.099,0 -0.14842,-0.033 -0.14842,-0.11544 0,-1.03894 1.05543,-2.01191 2.19331,-2.01191 1.10491,0 2.14385,0.97297 2.14385,1.97893 0,0.11544 -0.033,0.13193 -0.31333,0.13193 z m 0,1.23683 4.37014,-0.0165 c 0.75859,0 0.97297,-0.23087 0.97297,-1.1049 0,-1.92946 -1.53367,-3.46313 -3.44664,-3.46313 -1.38525,0 -2.72103,0.85753 -3.16629,2.0284 -0.1814,0.46175 -0.31333,1.33578 -0.31333,2.02841 0,2.25928 1.41824,3.79295 3.44664,3.80944 0.87403,0 1.63262,-0.28035 2.32525,-0.85754 0.23087,-0.1814 0.29684,-0.32982 0.29684,-0.5442 0,-0.36281 -0.23088,-0.59368 -0.57719,-0.59368 -0.1814,0 -0.28035,0.033 -0.46175,0.1814 -0.49474,0.41228 -0.98947,0.59368 -1.56666,0.59368 -1.1049,0 -2.16033,-0.95648 -2.14384,-1.96244 0,-0.0825 0.0165,-0.0825 0.099,-0.099 h 0.11543 z"
             style="font-family:Din17;-inkscape-font-specification:Din17"
             id="path51474" />
        </g>
      </g>
    </g>
  </g>
</svg>
